<svg width="420" height="286" viewBox="0 0 420 286" fill="none" xmlns="http://www.w3.org/2000/svg">
<g clip-path="url(#clip0_2125_7696)">
<path d="M0 6.00001C0 2.6863 2.68629 0 6 0H414C417.314 0 420 2.68629 420 6V280C420 283.314 417.314 286 414 286H5.99999C2.68628 286 0 283.314 0 280V6.00001Z" fill="#EEF0F3"/>
<path d="M24.9645 98.9971L24.8838 96.0459H26.0251L25.9444 98.9971H24.9645ZM32.384 104L32.7759 101.89H31.3234L30.943 104H29.8824L30.2744 101.89H29.0409L29.2023 100.991H30.4357L30.7585 99.2392H29.525L29.6864 98.3285H30.9199L31.3119 96.2188H32.3609L31.9805 98.3285H33.4215L33.8134 96.2188H34.874L34.4821 98.3285H35.704L35.5426 99.2392H34.3207L33.9979 100.991H35.2083L35.0585 101.89H33.8365L33.4445 104H32.384ZM31.4963 100.991H32.9373L33.2601 99.2392H31.8076L31.4963 100.991ZM39.2962 104L39.6882 101.89H38.2357L37.8552 104H36.7947L37.1866 101.89H35.9531L36.1145 100.991H37.348L37.6708 99.2392H36.4373L36.5987 98.3285H37.8322L38.2241 96.2188H39.2732L38.8927 98.3285H40.3337L40.7257 96.2188H41.7863L41.3943 98.3285H42.6163L42.4549 99.2392H41.2329L40.9101 100.991H42.1206L41.9707 101.89H40.7487L40.3568 104H39.2962ZM38.4086 100.991H39.8496L40.1724 99.2392H38.7198L38.4086 100.991ZM45.4476 104V102.524H46.9463V104H45.4476ZM45.4476 99.7118V98.2362H46.9463V99.7118H45.4476ZM52.3599 104V102.524H53.8585V104H52.3599ZM52.3599 99.7118V98.2362H53.8585V99.7118H52.3599ZM59.2722 104V102.524H60.7708V104H59.2722ZM59.2722 99.7118V98.2362H60.7708V99.7118H59.2722ZM66.1844 104V102.524H67.6831V104H66.1844ZM66.1844 99.7118V98.2362H67.6831V99.7118H66.1844ZM73.0967 104V102.524H74.5953V104H73.0967ZM73.0967 99.7118V98.2362H74.5953V99.7118H73.0967ZM80.0089 104V102.524H81.5076V104H80.0089ZM80.0089 99.7118V98.2362H81.5076V99.7118H80.0089ZM86.9212 104V102.524H88.4198V104H86.9212ZM86.9212 99.7118V98.2362H88.4198V99.7118H86.9212ZM93.8335 104V102.524H95.3321V104H93.8335ZM93.8335 99.7118V98.2362H95.3321V99.7118H93.8335ZM100.746 104V102.524H102.245V104H100.746ZM100.746 99.7118V98.2362H102.245V99.7118H100.746ZM107.658 104V102.524H109.157V104H107.658ZM107.658 99.7118V98.2362H109.157V99.7118H107.658ZM114.824 98.9971L114.743 96.0459H115.885L115.804 98.9971H114.824ZM122.244 104L122.635 101.89H121.183L120.803 104H119.742L120.134 101.89H118.9L119.062 100.991H120.295L120.618 99.2392H119.385L119.546 98.3285H120.779L121.171 96.2188H122.22L121.84 98.3285H123.281L123.673 96.2188H124.734L124.342 98.3285H125.564L125.402 99.2392H124.18L123.857 100.991H125.068L124.918 101.89H123.696L123.304 104H122.244ZM121.356 100.991H122.797L123.12 99.2392H121.667L121.356 100.991ZM129.156 104L129.548 101.89H128.095L127.715 104H126.654L127.046 101.89H125.813L125.974 100.991H127.208L127.53 99.2392H126.297L126.458 98.3285H127.692L128.084 96.2188H129.133L128.752 98.3285H130.193L130.585 96.2188H131.646L131.254 98.3285H132.476L132.314 99.2392H131.092L130.77 100.991H131.98L131.83 101.89H130.608L130.216 104H129.156ZM128.268 100.991H129.709L130.032 99.2392H128.579L128.268 100.991ZM136.068 104L136.46 101.89H135.007L134.627 104H133.566L133.958 101.89H132.725L132.886 100.991H134.12L134.443 99.2392H133.209L133.371 98.3285H134.604L134.996 96.2188H136.045L135.665 98.3285H137.106L137.498 96.2188H138.558L138.166 98.3285H139.388L139.227 99.2392H138.005L137.682 100.991H138.892L138.743 101.89H137.521L137.129 104H136.068ZM135.18 100.991H136.621L136.944 99.2392H135.492L135.18 100.991ZM142.98 104L143.372 101.89H141.92L141.539 104H140.479L140.871 101.89H139.637L139.799 100.991H141.032L141.355 99.2392H140.121L140.283 98.3285H141.516L141.908 96.2188H142.957L142.577 98.3285H144.018L144.41 96.2188H145.47L145.078 98.3285H146.3L146.139 99.2392H144.917L144.594 100.991H145.805L145.655 101.89H144.433L144.041 104H142.98ZM142.093 100.991H143.534L143.856 99.2392H142.404L142.093 100.991ZM149.893 104L150.285 101.89H148.832L148.452 104H147.391L147.783 101.89H146.549L146.711 100.991H147.944L148.267 99.2392H147.034L147.195 98.3285H148.429L148.82 96.2188H149.87L149.489 98.3285H150.93L151.322 96.2188H152.383L151.991 98.3285H153.213L153.051 99.2392H151.829L151.506 100.991H152.717L152.567 101.89H151.345L150.953 104H149.893ZM149.005 100.991H150.446L150.769 99.2392H149.316L149.005 100.991ZM156.044 104V102.524H157.543V104H156.044ZM156.044 99.7118V98.2362H157.543V99.7118H156.044ZM162.956 104V102.524H164.455V104H162.956ZM162.956 99.7118V98.2362H164.455V99.7118H162.956ZM169.869 104V102.524H171.367V104H169.869ZM169.869 99.7118V98.2362H171.367V99.7118H169.869ZM177.034 98.9971L176.954 96.0459H178.095L178.014 98.9971H177.034ZM184.454 104L184.846 101.89H183.393L183.013 104H181.952L182.344 101.89H181.111L181.272 100.991H182.506L182.828 99.2392H181.595L181.756 98.3285H182.99L183.382 96.2188H184.431L184.05 98.3285H185.491L185.883 96.2188H186.944L186.552 98.3285H187.774L187.613 99.2392H186.391L186.068 100.991H187.278L187.128 101.89H185.906L185.514 104H184.454ZM183.566 100.991H185.007L185.33 99.2392H183.877L183.566 100.991ZM191.366 104L191.758 101.89H190.306L189.925 104H188.865L189.257 101.89H188.023L188.184 100.991H189.418L189.741 99.2392H188.507L188.669 98.3285H189.902L190.294 96.2188H191.343L190.963 98.3285H192.404L192.796 96.2188H193.856L193.464 98.3285H194.686L194.525 99.2392H193.303L192.98 100.991H194.19L194.041 101.89H192.819L192.427 104H191.366ZM190.478 100.991H191.919L192.242 99.2392H190.79L190.478 100.991ZM197.518 104V102.524H199.016V104H197.518ZM197.518 99.7118V98.2362H199.016V99.7118H197.518ZM204.43 104V102.524H205.928V104H204.43ZM204.43 99.7118V98.2362H205.928V99.7118H204.43ZM211.342 104V102.524H212.841V104H211.342ZM211.342 99.7118V98.2362H212.841V99.7118H211.342ZM218.254 104V102.524H219.753V104H218.254ZM218.254 99.7118V98.2362H219.753V99.7118H218.254ZM225.167 104V102.524H226.665V104H225.167ZM225.167 99.7118V98.2362H226.665V99.7118H225.167ZM232.079 104V102.524H233.577V104H232.079ZM232.079 99.7118V98.2362H233.577V99.7118H232.079ZM238.991 104V102.524H240.49V104H238.991ZM238.991 99.7118V98.2362H240.49V99.7118H238.991ZM245.903 104V102.524H247.402V104H245.903ZM245.903 99.7118V98.2362H247.402V99.7118H245.903ZM32.384 115L32.7759 112.89H31.3234L30.943 115H29.8824L30.2744 112.89H29.0409L29.2023 111.991H30.4357L30.7585 110.239H29.525L29.6864 109.328H30.9199L31.3119 107.219H32.3609L31.9805 109.328H33.4215L33.8134 107.219H34.874L34.4821 109.328H35.704L35.5426 110.239H34.3207L33.9979 111.991H35.2083L35.0585 112.89H33.8365L33.4445 115H32.384ZM31.4963 111.991H32.9373L33.2601 110.239H31.8076L31.4963 111.991ZM39.2962 115L39.6882 112.89H38.2357L37.8552 115H36.7947L37.1866 112.89H35.9531L36.1145 111.991H37.348L37.6708 110.239H36.4373L36.5987 109.328H37.8322L38.2241 107.219H39.2732L38.8927 109.328H40.3337L40.7257 107.219H41.7863L41.3943 109.328H42.6163L42.4549 110.239H41.2329L40.9101 111.991H42.1206L41.9707 112.89H40.7487L40.3568 115H39.2962ZM38.4086 111.991H39.8496L40.1724 110.239H38.7198L38.4086 111.991ZM45.4476 115V113.524H46.9463V115H45.4476ZM45.4476 110.712V109.236H46.9463V110.712H45.4476ZM52.3599 115V113.524H53.8585V115H52.3599ZM52.3599 110.712V109.236H53.8585V110.712H52.3599ZM59.2722 115V113.524H60.7708V115H59.2722ZM59.2722 110.712V109.236H60.7708V110.712H59.2722ZM66.438 109.997L66.3573 107.046H67.4986L67.4179 109.997H66.438ZM73.8575 115L74.2495 112.89H72.797L72.4165 115H71.356L71.7479 112.89H70.5144L70.6758 111.991H71.9093L72.2321 110.239H70.9986L71.16 109.328H72.3935L72.7854 107.219H73.8345L73.454 109.328H74.895L75.287 107.219H76.3476L75.9556 109.328H77.1776L77.0162 110.239H75.7942L75.4714 111.991H76.6819L76.532 112.89H75.31L74.9181 115H73.8575ZM72.9699 111.991H74.4109L74.7336 110.239H73.2811L72.9699 111.991ZM80.7698 115L81.1617 112.89H79.7092L79.3288 115H78.2682L78.6602 112.89H77.4267L77.5881 111.991H78.8216L79.1443 110.239H77.9109L78.0722 109.328H79.3057L79.6977 107.219H80.7467L80.3663 109.328H81.8073L82.1992 107.219H83.2598L82.8679 109.328H84.0898L83.9284 110.239H82.7065L82.3837 111.991H83.5941L83.4443 112.89H82.2223L81.8304 115H80.7698ZM79.8821 111.991H81.3231L81.6459 110.239H80.1934L79.8821 111.991ZM86.9212 115V113.524H88.4198V115H86.9212ZM86.9212 110.712V109.236H88.4198V110.712H86.9212ZM93.8335 115V113.524H95.3321V115H93.8335ZM93.8335 110.712V109.236H95.3321V110.712H93.8335ZM100.746 115V113.524H102.245V115H100.746ZM100.746 110.712V109.236H102.245V110.712H100.746ZM107.912 109.997L107.831 107.046H108.972L108.892 109.997H107.912ZM115.331 115L115.723 112.89H114.271L113.89 115H112.83L113.222 112.89H111.988L112.15 111.991H113.383L113.706 110.239H112.472L112.634 109.328H113.867L114.259 107.219H115.308L114.928 109.328H116.369L116.761 107.219H117.821L117.429 109.328H118.651L118.49 110.239H117.268L116.945 111.991H118.156L118.006 112.89H116.784L116.392 115H115.331ZM114.444 111.991H115.885L116.207 110.239H114.755L114.444 111.991ZM122.244 115L122.635 112.89H121.183L120.803 115H119.742L120.134 112.89H118.9L119.062 111.991H120.295L120.618 110.239H119.385L119.546 109.328H120.779L121.171 107.219H122.22L121.84 109.328H123.281L123.673 107.219H124.734L124.342 109.328H125.564L125.402 110.239H124.18L123.857 111.991H125.068L124.918 112.89H123.696L123.304 115H122.244ZM121.356 111.991H122.797L123.12 110.239H121.667L121.356 111.991ZM128.395 115V113.524H129.894V115H128.395ZM135.307 115V113.524H136.806V115H135.307ZM149.893 115L150.285 112.89H148.832L148.452 115H147.391L147.783 112.89H146.549L146.711 111.991H147.944L148.267 110.239H147.034L147.195 109.328H148.429L148.82 107.219H149.87L149.489 109.328H150.93L151.322 107.219H152.383L151.991 109.328H153.213L153.051 110.239H151.829L151.506 111.991H152.717L152.567 112.89H151.345L150.953 115H149.893ZM149.005 111.991H150.446L150.769 110.239H149.316L149.005 111.991ZM156.805 115L157.197 112.89H155.744L155.364 115H154.303L154.695 112.89H153.462L153.623 111.991H154.857L155.179 110.239H153.946L154.107 109.328H155.341L155.733 107.219H156.782L156.401 109.328H157.842L158.234 107.219H159.295L158.903 109.328H160.125L159.963 110.239H158.742L158.419 111.991H159.629L159.479 112.89H158.257L157.865 115H156.805ZM155.917 111.991H157.358L157.681 110.239H156.228L155.917 111.991ZM162.956 115V113.524H164.455V115H162.956ZM162.956 110.712V109.236H164.455V110.712H162.956ZM169.869 115V113.524H171.367V115H169.869ZM169.869 110.712V109.236H171.367V110.712H169.869ZM184.454 115L184.846 112.89H183.393L183.013 115H181.952L182.344 112.89H181.111L181.272 111.991H182.506L182.828 110.239H181.595L181.756 109.328H182.99L183.382 107.219H184.431L184.05 109.328H185.491L185.883 107.219H186.944L186.552 109.328H187.774L187.613 110.239H186.391L186.068 111.991H187.278L187.128 112.89H185.906L185.514 115H184.454ZM183.566 111.991H185.007L185.33 110.239H183.877L183.566 111.991ZM191.366 115L191.758 112.89H190.306L189.925 115H188.865L189.257 112.89H188.023L188.184 111.991H189.418L189.741 110.239H188.507L188.669 109.328H189.902L190.294 107.219H191.343L190.963 109.328H192.404L192.796 107.219H193.856L193.464 109.328H194.686L194.525 110.239H193.303L192.98 111.991H194.19L194.041 112.89H192.819L192.427 115H191.366ZM190.478 111.991H191.919L192.242 110.239H190.79L190.478 111.991ZM197.518 115V113.524H199.016V115H197.518ZM197.518 110.712V109.236H199.016V110.712H197.518ZM204.43 115V113.524H205.928V115H204.43ZM204.43 110.712V109.236H205.928V110.712H204.43ZM211.342 115V113.524H212.841V115H211.342ZM211.342 110.712V109.236H212.841V110.712H211.342ZM218.508 109.997L218.427 107.046H219.569L219.488 109.997H218.508ZM225.927 115L226.319 112.89H224.867L224.486 115H223.426L223.818 112.89H222.584L222.746 111.991H223.979L224.302 110.239H223.069L223.23 109.328H224.463L224.855 107.219H225.904L225.524 109.328H226.965L227.357 107.219H228.417L228.026 109.328H229.247L229.086 110.239H227.864L227.541 111.991H228.752L228.602 112.89H227.38L226.988 115H225.927ZM225.04 111.991H226.481L226.804 110.239H225.351L225.04 111.991ZM232.84 115L233.232 112.89H231.779L231.399 115H230.338L230.73 112.89H229.497L229.658 111.991H230.891L231.214 110.239H229.981L230.142 109.328H231.376L231.768 107.219H232.817L232.436 109.328H233.877L234.269 107.219H235.33L234.938 109.328H236.16L235.998 110.239H234.776L234.454 111.991H235.664L235.514 112.89H234.292L233.9 115H232.84ZM231.952 111.991H233.393L233.716 110.239H232.263L231.952 111.991ZM238.991 115V113.524H240.49V115H238.991ZM238.991 110.712V109.236H240.49V110.712H238.991ZM245.903 115V113.524H247.402V115H245.903ZM245.903 110.712V109.236H247.402V110.712H245.903ZM32.384 127L32.7759 124.89H31.3234L30.943 127H29.8824L30.2744 124.89H29.0409L29.2023 123.991H30.4357L30.7585 122.239H29.525L29.6864 121.328H30.9199L31.3119 119.219H32.3609L31.9805 121.328H33.4215L33.8134 119.219H34.874L34.4821 121.328H35.704L35.5426 122.239H34.3207L33.9979 123.991H35.2083L35.0585 124.89H33.8365L33.4445 127H32.384ZM31.4963 123.991H32.9373L33.2601 122.239H31.8076L31.4963 123.991ZM39.2962 127L39.6882 124.89H38.2357L37.8552 127H36.7947L37.1866 124.89H35.9531L36.1145 123.991H37.348L37.6708 122.239H36.4373L36.5987 121.328H37.8322L38.2241 119.219H39.2732L38.8927 121.328H40.3337L40.7257 119.219H41.7863L41.3943 121.328H42.6163L42.4549 122.239H41.2329L40.9101 123.991H42.1206L41.9707 124.89H40.7487L40.3568 127H39.2962ZM38.4086 123.991H39.8496L40.1724 122.239H38.7198L38.4086 123.991ZM45.4476 127V125.524H46.9463V127H45.4476ZM45.4476 122.712V121.236H46.9463V122.712H45.4476ZM52.3599 127V125.524H53.8585V127H52.3599ZM52.3599 122.712V121.236H53.8585V122.712H52.3599ZM59.2722 127V125.524H60.7708V127H59.2722ZM59.2722 122.712V121.236H60.7708V122.712H59.2722ZM73.8575 127L74.2495 124.89H72.797L72.4165 127H71.356L71.7479 124.89H70.5144L70.6758 123.991H71.9093L72.2321 122.239H70.9986L71.16 121.328H72.3935L72.7854 119.219H73.8345L73.454 121.328H74.895L75.287 119.219H76.3476L75.9556 121.328H77.1776L77.0162 122.239H75.7942L75.4714 123.991H76.6819L76.532 124.89H75.31L74.9181 127H73.8575ZM72.9699 123.991H74.4109L74.7336 122.239H73.2811L72.9699 123.991ZM80.7698 127L81.1617 124.89H79.7092L79.3288 127H78.2682L78.6602 124.89H77.4267L77.5881 123.991H78.8216L79.1443 122.239H77.9109L78.0722 121.328H79.3057L79.6977 119.219H80.7467L80.3663 121.328H81.8073L82.1992 119.219H83.2598L82.8679 121.328H84.0898L83.9284 122.239H82.7065L82.3837 123.991H83.5941L83.4443 124.89H82.2223L81.8304 127H80.7698ZM79.8821 123.991H81.3231L81.6459 122.239H80.1934L79.8821 123.991ZM86.9212 127V125.524H88.4198V127H86.9212ZM86.9212 122.712V121.236H88.4198V122.712H86.9212ZM93.8335 127V125.524H95.3321V127H93.8335ZM93.8335 122.712V121.236H95.3321V122.712H93.8335ZM101 121.997L100.919 119.046H102.06L101.979 121.997H101ZM108.419 127L108.811 124.89H107.358L106.978 127H105.917L106.309 124.89H105.076L105.237 123.991H106.471L106.794 122.239H105.56L105.721 121.328H106.955L107.347 119.219H108.396L108.016 121.328H109.457L109.848 119.219H110.909L110.517 121.328H111.739L111.578 122.239H110.356L110.033 123.991H111.243L111.094 124.89H109.872L109.48 127H108.419ZM107.531 123.991H108.972L109.295 122.239H107.843L107.531 123.991ZM115.331 127L115.723 124.89H114.271L113.89 127H112.83L113.222 124.89H111.988L112.15 123.991H113.383L113.706 122.239H112.472L112.634 121.328H113.867L114.259 119.219H115.308L114.928 121.328H116.369L116.761 119.219H117.821L117.429 121.328H118.651L118.49 122.239H117.268L116.945 123.991H118.156L118.006 124.89H116.784L116.392 127H115.331ZM114.444 123.991H115.885L116.207 122.239H114.755L114.444 123.991ZM121.483 127V125.524H122.981V127H121.483ZM121.483 122.712V121.236H122.981V122.712H121.483ZM128.395 127V125.524H129.894V127H128.395ZM128.395 122.712V121.236H129.894V122.712H128.395ZM135.307 127V125.524H136.806V127H135.307ZM135.307 122.712V121.236H136.806V122.712H135.307ZM142.219 127V125.524H143.718V127H142.219ZM142.219 122.712V121.236H143.718V122.712H142.219ZM156.805 127L157.197 124.89H155.744L155.364 127H154.303L154.695 124.89H153.462L153.623 123.991H154.857L155.179 122.239H153.946L154.107 121.328H155.341L155.733 119.219H156.782L156.401 121.328H157.842L158.234 119.219H159.295L158.903 121.328H160.125L159.963 122.239H158.742L158.419 123.991H159.629L159.479 124.89H158.257L157.865 127H156.805ZM155.917 123.991H157.358L157.681 122.239H156.228L155.917 123.991ZM163.717 127L164.109 124.89H162.657L162.276 127H161.216L161.607 124.89H160.374L160.535 123.991H161.769L162.092 122.239H160.858L161.02 121.328H162.253L162.645 119.219H163.694L163.314 121.328H164.755L165.147 119.219H166.207L165.815 121.328H167.037L166.876 122.239H165.654L165.331 123.991H166.541L166.392 124.89H165.17L164.778 127H163.717ZM162.829 123.991H164.27L164.593 122.239H163.141L162.829 123.991ZM169.869 127V125.524H171.367V127H169.869ZM169.869 122.712V121.236H171.367V122.712H169.869ZM184.454 127L184.846 124.89H183.393L183.013 127H181.952L182.344 124.89H181.111L181.272 123.991H182.506L182.828 122.239H181.595L181.756 121.328H182.99L183.382 119.219H184.431L184.05 121.328H185.491L185.883 119.219H186.944L186.552 121.328H187.774L187.613 122.239H186.391L186.068 123.991H187.278L187.128 124.89H185.906L185.514 127H184.454ZM183.566 123.991H185.007L185.33 122.239H183.877L183.566 123.991ZM191.366 127L191.758 124.89H190.306L189.925 127H188.865L189.257 124.89H188.023L188.184 123.991H189.418L189.741 122.239H188.507L188.669 121.328H189.902L190.294 119.219H191.343L190.963 121.328H192.404L192.796 119.219H193.856L193.464 121.328H194.686L194.525 122.239H193.303L192.98 123.991H194.19L194.041 124.89H192.819L192.427 127H191.366ZM190.478 123.991H191.919L192.242 122.239H190.79L190.478 123.991ZM197.518 127V125.524H199.016V127H197.518ZM197.518 122.712V121.236H199.016V122.712H197.518ZM204.43 127V125.524H205.928V127H204.43ZM204.43 122.712V121.236H205.928V122.712H204.43ZM211.342 127V125.524H212.841V127H211.342ZM211.342 122.712V121.236H212.841V122.712H211.342ZM225.927 127L226.319 124.89H224.867L224.486 127H223.426L223.818 124.89H222.584L222.746 123.991H223.979L224.302 122.239H223.069L223.23 121.328H224.463L224.855 119.219H225.904L225.524 121.328H226.965L227.357 119.219H228.417L228.026 121.328H229.247L229.086 122.239H227.864L227.541 123.991H228.752L228.602 124.89H227.38L226.988 127H225.927ZM225.04 123.991H226.481L226.804 122.239H225.351L225.04 123.991ZM232.84 127L233.232 124.89H231.779L231.399 127H230.338L230.73 124.89H229.497L229.658 123.991H230.891L231.214 122.239H229.981L230.142 121.328H231.376L231.768 119.219H232.817L232.436 121.328H233.877L234.269 119.219H235.33L234.938 121.328H236.16L235.998 122.239H234.776L234.454 123.991H235.664L235.514 124.89H234.292L233.9 127H232.84ZM231.952 123.991H233.393L233.716 122.239H232.263L231.952 123.991ZM238.991 127V125.524H240.49V127H238.991ZM238.991 122.712V121.236H240.49V122.712H238.991ZM245.903 127V125.524H247.402V127H245.903ZM245.903 122.712V121.236H247.402V122.712H245.903ZM32.384 138L32.7759 135.89H31.3234L30.943 138H29.8824L30.2744 135.89H29.0409L29.2023 134.991H30.4357L30.7585 133.239H29.525L29.6864 132.328H30.9199L31.3119 130.219H32.3609L31.9805 132.328H33.4215L33.8134 130.219H34.874L34.4821 132.328H35.704L35.5426 133.239H34.3207L33.9979 134.991H35.2083L35.0585 135.89H33.8365L33.4445 138H32.384ZM31.4963 134.991H32.9373L33.2601 133.239H31.8076L31.4963 134.991ZM39.2962 138L39.6882 135.89H38.2357L37.8552 138H36.7947L37.1866 135.89H35.9531L36.1145 134.991H37.348L37.6708 133.239H36.4373L36.5987 132.328H37.8322L38.2241 130.219H39.2732L38.8927 132.328H40.3337L40.7257 130.219H41.7863L41.3943 132.328H42.6163L42.4549 133.239H41.2329L40.9101 134.991H42.1206L41.9707 135.89H40.7487L40.3568 138H39.2962ZM38.4086 134.991H39.8496L40.1724 133.239H38.7198L38.4086 134.991ZM45.4476 138V136.524H46.9463V138H45.4476ZM45.4476 133.712V132.236H46.9463V133.712H45.4476ZM52.3599 138V136.524H53.8585V138H52.3599ZM52.3599 133.712V132.236H53.8585V133.712H52.3599ZM59.2722 138V136.524H60.7708V138H59.2722ZM59.2722 133.712V132.236H60.7708V133.712H59.2722ZM73.8575 138L74.2495 135.89H72.797L72.4165 138H71.356L71.7479 135.89H70.5144L70.6758 134.991H71.9093L72.2321 133.239H70.9986L71.16 132.328H72.3935L72.7854 130.219H73.8345L73.454 132.328H74.895L75.287 130.219H76.3476L75.9556 132.328H77.1776L77.0162 133.239H75.7942L75.4714 134.991H76.6819L76.532 135.89H75.31L74.9181 138H73.8575ZM72.9699 134.991H74.4109L74.7336 133.239H73.2811L72.9699 134.991ZM80.7698 138L81.1617 135.89H79.7092L79.3288 138H78.2682L78.6602 135.89H77.4267L77.5881 134.991H78.8216L79.1443 133.239H77.9109L78.0722 132.328H79.3057L79.6977 130.219H80.7467L80.3663 132.328H81.8073L82.1992 130.219H83.2598L82.8679 132.328H84.0898L83.9284 133.239H82.7065L82.3837 134.991H83.5941L83.4443 135.89H82.2223L81.8304 138H80.7698ZM79.8821 134.991H81.3231L81.6459 133.239H80.1934L79.8821 134.991ZM86.9212 138V136.524H88.4198V138H86.9212ZM86.9212 133.712V132.236H88.4198V133.712H86.9212ZM93.8335 138V136.524H95.3321V138H93.8335ZM93.8335 133.712V132.236H95.3321V133.712H93.8335ZM108.419 138L108.811 135.89H107.358L106.978 138H105.917L106.309 135.89H105.076L105.237 134.991H106.471L106.794 133.239H105.56L105.721 132.328H106.955L107.347 130.219H108.396L108.016 132.328H109.457L109.848 130.219H110.909L110.517 132.328H111.739L111.578 133.239H110.356L110.033 134.991H111.243L111.094 135.89H109.872L109.48 138H108.419ZM107.531 134.991H108.972L109.295 133.239H107.843L107.531 134.991ZM115.331 138L115.723 135.89H114.271L113.89 138H112.83L113.222 135.89H111.988L112.15 134.991H113.383L113.706 133.239H112.472L112.634 132.328H113.867L114.259 130.219H115.308L114.928 132.328H116.369L116.761 130.219H117.821L117.429 132.328H118.651L118.49 133.239H117.268L116.945 134.991H118.156L118.006 135.89H116.784L116.392 138H115.331ZM114.444 134.991H115.885L116.207 133.239H114.755L114.444 134.991ZM121.483 138V136.524H122.981V138H121.483ZM121.483 133.712V132.236H122.981V133.712H121.483ZM128.395 138V136.524H129.894V138H128.395ZM128.395 133.712V132.236H129.894V133.712H128.395ZM135.307 138V136.524H136.806V138H135.307ZM135.307 133.712V132.236H136.806V133.712H135.307ZM142.219 138V136.524H143.718V138H142.219ZM142.219 133.712V132.236H143.718V133.712H142.219ZM156.805 138L157.197 135.89H155.744L155.364 138H154.303L154.695 135.89H153.462L153.623 134.991H154.857L155.179 133.239H153.946L154.107 132.328H155.341L155.733 130.219H156.782L156.401 132.328H157.842L158.234 130.219H159.295L158.903 132.328H160.125L159.963 133.239H158.742L158.419 134.991H159.629L159.479 135.89H158.257L157.865 138H156.805ZM155.917 134.991H157.358L157.681 133.239H156.228L155.917 134.991ZM163.717 138L164.109 135.89H162.657L162.276 138H161.216L161.607 135.89H160.374L160.535 134.991H161.769L162.092 133.239H160.858L161.02 132.328H162.253L162.645 130.219H163.694L163.314 132.328H164.755L165.147 130.219H166.207L165.815 132.328H167.037L166.876 133.239H165.654L165.331 134.991H166.541L166.392 135.89H165.17L164.778 138H163.717ZM162.829 134.991H164.27L164.593 133.239H163.141L162.829 134.991ZM169.869 138V136.524H171.367V138H169.869ZM169.869 133.712V132.236H171.367V133.712H169.869ZM184.454 138L184.846 135.89H183.393L183.013 138H181.952L182.344 135.89H181.111L181.272 134.991H182.506L182.828 133.239H181.595L181.756 132.328H182.99L183.382 130.219H184.431L184.05 132.328H185.491L185.883 130.219H186.944L186.552 132.328H187.774L187.613 133.239H186.391L186.068 134.991H187.278L187.128 135.89H185.906L185.514 138H184.454ZM183.566 134.991H185.007L185.33 133.239H183.877L183.566 134.991ZM191.366 138L191.758 135.89H190.306L189.925 138H188.865L189.257 135.89H188.023L188.184 134.991H189.418L189.741 133.239H188.507L188.669 132.328H189.902L190.294 130.219H191.343L190.963 132.328H192.404L192.796 130.219H193.856L193.464 132.328H194.686L194.525 133.239H193.303L192.98 134.991H194.19L194.041 135.89H192.819L192.427 138H191.366ZM190.478 134.991H191.919L192.242 133.239H190.79L190.478 134.991ZM197.518 138V136.524H199.016V138H197.518ZM197.518 133.712V132.236H199.016V133.712H197.518ZM204.43 138V136.524H205.928V138H204.43ZM204.43 133.712V132.236H205.928V133.712H204.43ZM211.342 138V136.524H212.841V138H211.342ZM211.342 133.712V132.236H212.841V133.712H211.342ZM225.927 138L226.319 135.89H224.867L224.486 138H223.426L223.818 135.89H222.584L222.746 134.991H223.979L224.302 133.239H223.069L223.23 132.328H224.463L224.855 130.219H225.904L225.524 132.328H226.965L227.357 130.219H228.417L228.026 132.328H229.247L229.086 133.239H227.864L227.541 134.991H228.752L228.602 135.89H227.38L226.988 138H225.927ZM225.04 134.991H226.481L226.804 133.239H225.351L225.04 134.991ZM232.84 138L233.232 135.89H231.779L231.399 138H230.338L230.73 135.89H229.497L229.658 134.991H230.891L231.214 133.239H229.981L230.142 132.328H231.376L231.768 130.219H232.817L232.436 132.328H233.877L234.269 130.219H235.33L234.938 132.328H236.16L235.998 133.239H234.776L234.454 134.991H235.664L235.514 135.89H234.292L233.9 138H232.84ZM231.952 134.991H233.393L233.716 133.239H232.263L231.952 134.991ZM238.991 138V136.524H240.49V138H238.991ZM238.991 133.712V132.236H240.49V133.712H238.991ZM245.903 138V136.524H247.402V138H245.903ZM245.903 133.712V132.236H247.402V133.712H245.903ZM32.384 150L32.7759 147.89H31.3234L30.943 150H29.8824L30.2744 147.89H29.0409L29.2023 146.991H30.4357L30.7585 145.239H29.525L29.6864 144.328H30.9199L31.3119 142.219H32.3609L31.9805 144.328H33.4215L33.8134 142.219H34.874L34.4821 144.328H35.704L35.5426 145.239H34.3207L33.9979 146.991H35.2083L35.0585 147.89H33.8365L33.4445 150H32.384ZM31.4963 146.991H32.9373L33.2601 145.239H31.8076L31.4963 146.991ZM39.2962 150L39.6882 147.89H38.2357L37.8552 150H36.7947L37.1866 147.89H35.9531L36.1145 146.991H37.348L37.6708 145.239H36.4373L36.5987 144.328H37.8322L38.2241 142.219H39.2732L38.8927 144.328H40.3337L40.7257 142.219H41.7863L41.3943 144.328H42.6163L42.4549 145.239H41.2329L40.9101 146.991H42.1206L41.9707 147.89H40.7487L40.3568 150H39.2962ZM38.4086 146.991H39.8496L40.1724 145.239H38.7198L38.4086 146.991ZM46.2085 150L46.6004 147.89H45.1479L44.7675 150H43.7069L44.0989 147.89H42.8654L43.0268 146.991H44.2603L44.583 145.239H43.3496L43.511 144.328H44.7444L45.1364 142.219H46.1854L45.805 144.328H47.246L47.638 142.219H48.6985L48.3066 144.328H49.5285L49.3671 145.239H48.1452L47.8224 146.991H49.0328L48.883 147.89H47.661L47.2691 150H46.2085ZM45.3208 146.991H46.7618L47.0846 145.239H45.6321L45.3208 146.991ZM53.1207 150L53.5127 147.89H52.0602L51.6798 150H50.6192L51.0111 147.89H49.7776L49.939 146.991H51.1725L51.4953 145.239H50.2618L50.4232 144.328H51.6567L52.0486 142.219H53.0977L52.7173 144.328H54.1583L54.5502 142.219H55.6108L55.2188 144.328H56.4408L56.2794 145.239H55.0574L54.7347 146.991H55.9451L55.7952 147.89H54.5733L54.1813 150H53.1207ZM52.2331 146.991H53.6741L53.9969 145.239H52.5443L52.2331 146.991ZM60.033 150L60.425 147.89H58.9724L58.592 150H57.5314L57.9234 147.89H56.6899L56.8513 146.991H58.0848L58.4076 145.239H57.1741L57.3355 144.328H58.569L58.9609 142.219H60.0099L59.6295 144.328H61.0705L61.4625 142.219H62.523L62.1311 144.328H63.353L63.1917 145.239H61.9697L61.6469 146.991H62.8573L62.7075 147.89H61.4855L61.0936 150H60.033ZM59.1454 146.991H60.5863L60.9091 145.239H59.4566L59.1454 146.991ZM66.9453 150L67.3372 147.89H65.8847L65.5043 150H64.4437L64.8357 147.89H63.6022L63.7636 146.991H64.997L65.3198 145.239H64.0863L64.2477 144.328H65.4812L65.8732 142.219H66.9222L66.5418 144.328H67.9828L68.3747 142.219H69.4353L69.0434 144.328H70.2653L70.1039 145.239H68.882L68.5592 146.991H69.7696L69.6197 147.89H68.3978L68.0058 150H66.9453ZM66.0576 146.991H67.4986L67.8214 145.239H66.3689L66.0576 146.991ZM73.8575 150L74.2495 147.89H72.797L72.4165 150H71.356L71.7479 147.89H70.5144L70.6758 146.991H71.9093L72.2321 145.239H70.9986L71.16 144.328H72.3935L72.7854 142.219H73.8345L73.454 144.328H74.895L75.287 142.219H76.3476L75.9556 144.328H77.1776L77.0162 145.239H75.7942L75.4714 146.991H76.6819L76.532 147.89H75.31L74.9181 150H73.8575ZM72.9699 146.991H74.4109L74.7336 145.239H73.2811L72.9699 146.991ZM80.7698 150L81.1617 147.89H79.7092L79.3288 150H78.2682L78.6602 147.89H77.4267L77.5881 146.991H78.8216L79.1443 145.239H77.9109L78.0722 144.328H79.3057L79.6977 142.219H80.7467L80.3663 144.328H81.8073L82.1992 142.219H83.2598L82.8679 144.328H84.0898L83.9284 145.239H82.7065L82.3837 146.991H83.5941L83.4443 147.89H82.2223L81.8304 150H80.7698ZM79.8821 146.991H81.3231L81.6459 145.239H80.1934L79.8821 146.991ZM87.682 150L88.074 147.89H86.6215L86.241 150H85.1805L85.5724 147.89H84.3389L84.5003 146.991H85.7338L86.0566 145.239H84.8231L84.9845 144.328H86.218L86.6099 142.219H87.659L87.2786 144.328H88.7196L89.1115 142.219H90.1721L89.7801 144.328H91.0021L90.8407 145.239H89.6187L89.296 146.991H90.5064L90.3565 147.89H89.1346L88.7426 150H87.682ZM86.7944 146.991H88.2354L88.5582 145.239H87.1056L86.7944 146.991ZM93.8335 150V148.524H95.3321V150H93.8335ZM93.8335 145.712V144.236H95.3321V145.712H93.8335ZM108.419 150L108.811 147.89H107.358L106.978 150H105.917L106.309 147.89H105.076L105.237 146.991H106.471L106.794 145.239H105.56L105.721 144.328H106.955L107.347 142.219H108.396L108.016 144.328H109.457L109.848 142.219H110.909L110.517 144.328H111.739L111.578 145.239H110.356L110.033 146.991H111.243L111.094 147.89H109.872L109.48 150H108.419ZM107.531 146.991H108.972L109.295 145.239H107.843L107.531 146.991ZM115.331 150L115.723 147.89H114.271L113.89 150H112.83L113.222 147.89H111.988L112.15 146.991H113.383L113.706 145.239H112.472L112.634 144.328H113.867L114.259 142.219H115.308L114.928 144.328H116.369L116.761 142.219H117.821L117.429 144.328H118.651L118.49 145.239H117.268L116.945 146.991H118.156L118.006 147.89H116.784L116.392 150H115.331ZM114.444 146.991H115.885L116.207 145.239H114.755L114.444 146.991ZM121.483 150V148.524H122.981V150H121.483ZM121.483 145.712V144.236H122.981V145.712H121.483ZM128.395 150V148.524H129.894V150H128.395ZM128.395 145.712V144.236H129.894V145.712H128.395ZM135.307 150V148.524H136.806V150H135.307ZM135.307 145.712V144.236H136.806V145.712H135.307ZM142.219 150V148.524H143.718V150H142.219ZM142.219 145.712V144.236H143.718V145.712H142.219ZM156.805 150L157.197 147.89H155.744L155.364 150H154.303L154.695 147.89H153.462L153.623 146.991H154.857L155.179 145.239H153.946L154.107 144.328H155.341L155.733 142.219H156.782L156.401 144.328H157.842L158.234 142.219H159.295L158.903 144.328H160.125L159.963 145.239H158.742L158.419 146.991H159.629L159.479 147.89H158.257L157.865 150H156.805ZM155.917 146.991H157.358L157.681 145.239H156.228L155.917 146.991ZM163.717 150L164.109 147.89H162.657L162.276 150H161.216L161.607 147.89H160.374L160.535 146.991H161.769L162.092 145.239H160.858L161.02 144.328H162.253L162.645 142.219H163.694L163.314 144.328H164.755L165.147 142.219H166.207L165.815 144.328H167.037L166.876 145.239H165.654L165.331 146.991H166.541L166.392 147.89H165.17L164.778 150H163.717ZM162.829 146.991H164.27L164.593 145.239H163.141L162.829 146.991ZM169.869 150V148.524H171.367V150H169.869ZM169.869 145.712V144.236H171.367V145.712H169.869ZM184.454 150L184.846 147.89H183.393L183.013 150H181.952L182.344 147.89H181.111L181.272 146.991H182.506L182.828 145.239H181.595L181.756 144.328H182.99L183.382 142.219H184.431L184.05 144.328H185.491L185.883 142.219H186.944L186.552 144.328H187.774L187.613 145.239H186.391L186.068 146.991H187.278L187.128 147.89H185.906L185.514 150H184.454ZM183.566 146.991H185.007L185.33 145.239H183.877L183.566 146.991ZM191.366 150L191.758 147.89H190.306L189.925 150H188.865L189.257 147.89H188.023L188.184 146.991H189.418L189.741 145.239H188.507L188.669 144.328H189.902L190.294 142.219H191.343L190.963 144.328H192.404L192.796 142.219H193.856L193.464 144.328H194.686L194.525 145.239H193.303L192.98 146.991H194.19L194.041 147.89H192.819L192.427 150H191.366ZM190.478 146.991H191.919L192.242 145.239H190.79L190.478 146.991ZM198.278 150L198.67 147.89H197.218L196.837 150H195.777L196.169 147.89H194.935L195.097 146.991H196.33L196.653 145.239H195.419L195.581 144.328H196.814L197.206 142.219H198.255L197.875 144.328H199.316L199.708 142.219H200.768L200.376 144.328H201.598L201.437 145.239H200.215L199.892 146.991H201.103L200.953 147.89H199.731L199.339 150H198.278ZM197.391 146.991H198.832L199.155 145.239H197.702L197.391 146.991ZM205.191 150L205.583 147.89H204.13L203.75 150H202.689L203.081 147.89H201.848L202.009 146.991H203.242L203.565 145.239H202.332L202.493 144.328H203.727L204.119 142.219H205.168L204.787 144.328H206.228L206.62 142.219H207.681L207.289 144.328H208.511L208.349 145.239H207.127L206.805 146.991H208.015L207.865 147.89H206.643L206.251 150H205.191ZM204.303 146.991H205.744L206.067 145.239H204.614L204.303 146.991ZM212.103 150L212.495 147.89H211.042L210.662 150H209.601L209.993 147.89H208.76L208.921 146.991H210.155L210.477 145.239H209.244L209.405 144.328H210.639L211.031 142.219H212.08L211.699 144.328H213.14L213.532 142.219H214.593L214.201 144.328H215.423L215.262 145.239H214.04L213.717 146.991H214.927L214.777 147.89H213.555L213.163 150H212.103ZM211.215 146.991H212.656L212.979 145.239H211.527L211.215 146.991ZM219.015 150L219.407 147.89H217.955L217.574 150H216.514L216.906 147.89H215.672L215.833 146.991H217.067L217.39 145.239H216.156L216.318 144.328H217.551L217.943 142.219H218.992L218.612 144.328H220.053L220.445 142.219H221.505L221.113 144.328H222.335L222.174 145.239H220.952L220.629 146.991H221.84L221.69 147.89H220.468L220.076 150H219.015ZM218.128 146.991H219.569L219.891 145.239H218.439L218.128 146.991ZM225.927 150L226.319 147.89H224.867L224.486 150H223.426L223.818 147.89H222.584L222.746 146.991H223.979L224.302 145.239H223.069L223.23 144.328H224.463L224.855 142.219H225.904L225.524 144.328H226.965L227.357 142.219H228.417L228.026 144.328H229.247L229.086 145.239H227.864L227.541 146.991H228.752L228.602 147.89H227.38L226.988 150H225.927ZM225.04 146.991H226.481L226.804 145.239H225.351L225.04 146.991ZM232.84 150L233.232 147.89H231.779L231.399 150H230.338L230.73 147.89H229.497L229.658 146.991H230.891L231.214 145.239H229.981L230.142 144.328H231.376L231.768 142.219H232.817L232.436 144.328H233.877L234.269 142.219H235.33L234.938 144.328H236.16L235.998 145.239H234.776L234.454 146.991H235.664L235.514 147.89H234.292L233.9 150H232.84ZM231.952 146.991H233.393L233.716 145.239H232.263L231.952 146.991ZM239.752 150L240.144 147.89H238.691L238.311 150H237.25L237.642 147.89H236.409L236.57 146.991H237.804L238.126 145.239H236.893L237.054 144.328H238.288L238.68 142.219H239.729L239.348 144.328H240.789L241.181 142.219H242.242L241.85 144.328H243.072L242.911 145.239H241.689L241.366 146.991H242.576L242.426 147.89H241.204L240.813 150H239.752ZM238.864 146.991H240.305L240.628 145.239H239.176L238.864 146.991ZM245.903 150V148.524H247.402V150H245.903ZM245.903 145.712V144.236H247.402V145.712H245.903ZM24.7109 161V159.524H26.2095V161H24.7109ZM31.6231 161V159.524H33.1218V161H31.6231ZM38.5354 161V159.524H40.034V161H38.5354ZM45.4476 161V159.524H46.9463V161H45.4476ZM52.3599 161V159.524H53.8585V161H52.3599ZM59.2722 161V159.524H60.7708V161H59.2722ZM73.8575 161L74.2495 158.89H72.797L72.4165 161H71.356L71.7479 158.89H70.5144L70.6758 157.991H71.9093L72.2321 156.239H70.9986L71.16 155.328H72.3935L72.7854 153.219H73.8345L73.454 155.328H74.895L75.287 153.219H76.3476L75.9556 155.328H77.1776L77.0162 156.239H75.7942L75.4714 157.991H76.6819L76.532 158.89H75.31L74.9181 161H73.8575ZM72.9699 157.991H74.4109L74.7336 156.239H73.2811L72.9699 157.991ZM80.7698 161L81.1617 158.89H79.7092L79.3288 161H78.2682L78.6602 158.89H77.4267L77.5881 157.991H78.8216L79.1443 156.239H77.9109L78.0722 155.328H79.3057L79.6977 153.219H80.7467L80.3663 155.328H81.8073L82.1992 153.219H83.2598L82.8679 155.328H84.0898L83.9284 156.239H82.7065L82.3837 157.991H83.5941L83.4443 158.89H82.2223L81.8304 161H80.7698ZM79.8821 157.991H81.3231L81.6459 156.239H80.1934L79.8821 157.991ZM86.9212 161V159.524H88.4198V161H86.9212ZM86.9212 156.712V155.236H88.4198V156.712H86.9212ZM93.8335 161V159.524H95.3321V161H93.8335ZM93.8335 156.712V155.236H95.3321V156.712H93.8335ZM100.746 161V159.524H102.245V161H100.746ZM115.331 161L115.723 158.89H114.271L113.89 161H112.83L113.222 158.89H111.988L112.15 157.991H113.383L113.706 156.239H112.472L112.634 155.328H113.867L114.259 153.219H115.308L114.928 155.328H116.369L116.761 153.219H117.821L117.429 155.328H118.651L118.49 156.239H117.268L116.945 157.991H118.156L118.006 158.89H116.784L116.392 161H115.331ZM114.444 157.991H115.885L116.207 156.239H114.755L114.444 157.991ZM122.244 161L122.635 158.89H121.183L120.803 161H119.742L120.134 158.89H118.9L119.062 157.991H120.295L120.618 156.239H119.385L119.546 155.328H120.779L121.171 153.219H122.22L121.84 155.328H123.281L123.673 153.219H124.734L124.342 155.328H125.564L125.402 156.239H124.18L123.857 157.991H125.068L124.918 158.89H123.696L123.304 161H122.244ZM121.356 157.991H122.797L123.12 156.239H121.667L121.356 157.991ZM128.395 161V159.524H129.894V161H128.395ZM128.395 156.712V155.236H129.894V156.712H128.395ZM135.307 161V159.524H136.806V161H135.307ZM135.307 156.712V155.236H136.806V156.712H135.307ZM149.893 161L150.285 158.89H148.832L148.452 161H147.391L147.783 158.89H146.549L146.711 157.991H147.944L148.267 156.239H147.034L147.195 155.328H148.429L148.82 153.219H149.87L149.489 155.328H150.93L151.322 153.219H152.383L151.991 155.328H153.213L153.051 156.239H151.829L151.506 157.991H152.717L152.567 158.89H151.345L150.953 161H149.893ZM149.005 157.991H150.446L150.769 156.239H149.316L149.005 157.991ZM156.805 161L157.197 158.89H155.744L155.364 161H154.303L154.695 158.89H153.462L153.623 157.991H154.857L155.179 156.239H153.946L154.107 155.328H155.341L155.733 153.219H156.782L156.401 155.328H157.842L158.234 153.219H159.295L158.903 155.328H160.125L159.963 156.239H158.742L158.419 157.991H159.629L159.479 158.89H158.257L157.865 161H156.805ZM155.917 157.991H157.358L157.681 156.239H156.228L155.917 157.991ZM162.956 161V159.524H164.455V161H162.956ZM162.956 156.712V155.236H164.455V156.712H162.956ZM169.869 161V159.524H171.367V161H169.869ZM169.869 156.712V155.236H171.367V156.712H169.869ZM176.781 161V159.524H178.279V161H176.781ZM183.693 161V159.524H185.192V161H183.693ZM190.605 161V159.524H192.104V161H190.605ZM197.518 161V159.524H199.016V161H197.518ZM204.43 161V159.524H205.928V161H204.43ZM211.342 161V159.524H212.841V161H211.342ZM225.927 161L226.319 158.89H224.867L224.486 161H223.426L223.818 158.89H222.584L222.746 157.991H223.979L224.302 156.239H223.069L223.23 155.328H224.463L224.855 153.219H225.904L225.524 155.328H226.965L227.357 153.219H228.417L228.026 155.328H229.247L229.086 156.239H227.864L227.541 157.991H228.752L228.602 158.89H227.38L226.988 161H225.927ZM225.04 157.991H226.481L226.804 156.239H225.351L225.04 157.991ZM232.84 161L233.232 158.89H231.779L231.399 161H230.338L230.73 158.89H229.497L229.658 157.991H230.891L231.214 156.239H229.981L230.142 155.328H231.376L231.768 153.219H232.817L232.436 155.328H233.877L234.269 153.219H235.33L234.938 155.328H236.16L235.998 156.239H234.776L234.454 157.991H235.664L235.514 158.89H234.292L233.9 161H232.84ZM231.952 157.991H233.393L233.716 156.239H232.263L231.952 157.991ZM238.991 161V159.524H240.49V161H238.991ZM238.991 156.712V155.236H240.49V156.712H238.991ZM245.903 161V159.524H247.402V161H245.903ZM245.903 156.712V155.236H247.402V156.712H245.903ZM24.7109 173V171.524H26.2095V173H24.7109ZM24.7109 168.712V167.236H26.2095V168.712H24.7109ZM31.6231 173V171.524H33.1218V173H31.6231ZM31.6231 168.712V167.236H33.1218V168.712H31.6231ZM38.5354 173V171.524H40.034V173H38.5354ZM38.5354 168.712V167.236H40.034V168.712H38.5354ZM45.4476 173V171.524H46.9463V173H45.4476ZM45.4476 168.712V167.236H46.9463V168.712H45.4476ZM52.3599 173V171.524H53.8585V173H52.3599ZM52.3599 168.712V167.236H53.8585V168.712H52.3599ZM59.2722 173V171.524H60.7708V173H59.2722ZM59.2722 168.712V167.236H60.7708V168.712H59.2722ZM73.8575 173L74.2495 170.89H72.797L72.4165 173H71.356L71.7479 170.89H70.5144L70.6758 169.991H71.9093L72.2321 168.239H70.9986L71.16 167.328H72.3935L72.7854 165.219H73.8345L73.454 167.328H74.895L75.287 165.219H76.3476L75.9556 167.328H77.1776L77.0162 168.239H75.7942L75.4714 169.991H76.6819L76.532 170.89H75.31L74.9181 173H73.8575ZM72.9699 169.991H74.4109L74.7336 168.239H73.2811L72.9699 169.991ZM80.7698 173L81.1617 170.89H79.7092L79.3288 173H78.2682L78.6602 170.89H77.4267L77.5881 169.991H78.8216L79.1443 168.239H77.9109L78.0722 167.328H79.3057L79.6977 165.219H80.7467L80.3663 167.328H81.8073L82.1992 165.219H83.2598L82.8679 167.328H84.0898L83.9284 168.239H82.7065L82.3837 169.991H83.5941L83.4443 170.89H82.2223L81.8304 173H80.7698ZM79.8821 169.991H81.3231L81.6459 168.239H80.1934L79.8821 169.991ZM86.9212 173V171.524H88.4198V173H86.9212ZM86.9212 168.712V167.236H88.4198V168.712H86.9212ZM93.8335 173V171.524H95.3321V173H93.8335ZM93.8335 168.712V167.236H95.3321V168.712H93.8335ZM100.746 173V171.524H102.245V173H100.746ZM100.746 168.712V167.236H102.245V168.712H100.746ZM107.658 173V171.524H109.157V173H107.658ZM122.244 173L122.635 170.89H121.183L120.803 173H119.742L120.134 170.89H118.9L119.062 169.991H120.295L120.618 168.239H119.385L119.546 167.328H120.779L121.171 165.219H122.22L121.84 167.328H123.281L123.673 165.219H124.734L124.342 167.328H125.564L125.402 168.239H124.18L123.857 169.991H125.068L124.918 170.89H123.696L123.304 173H122.244ZM121.356 169.991H122.797L123.12 168.239H121.667L121.356 169.991ZM129.156 173L129.548 170.89H128.095L127.715 173H126.654L127.046 170.89H125.813L125.974 169.991H127.208L127.53 168.239H126.297L126.458 167.328H127.692L128.084 165.219H129.133L128.752 167.328H130.193L130.585 165.219H131.646L131.254 167.328H132.476L132.314 168.239H131.092L130.77 169.991H131.98L131.83 170.89H130.608L130.216 173H129.156ZM128.268 169.991H129.709L130.032 168.239H128.579L128.268 169.991ZM136.068 173L136.46 170.89H135.007L134.627 173H133.566L133.958 170.89H132.725L132.886 169.991H134.12L134.443 168.239H133.209L133.371 167.328H134.604L134.996 165.219H136.045L135.665 167.328H137.106L137.498 165.219H138.558L138.166 167.328H139.388L139.227 168.239H138.005L137.682 169.991H138.892L138.743 170.89H137.521L137.129 173H136.068ZM135.18 169.991H136.621L136.944 168.239H135.492L135.18 169.991ZM142.98 173L143.372 170.89H141.92L141.539 173H140.479L140.871 170.89H139.637L139.799 169.991H141.032L141.355 168.239H140.121L140.283 167.328H141.516L141.908 165.219H142.957L142.577 167.328H144.018L144.41 165.219H145.47L145.078 167.328H146.3L146.139 168.239H144.917L144.594 169.991H145.805L145.655 170.89H144.433L144.041 173H142.98ZM142.093 169.991H143.534L143.856 168.239H142.404L142.093 169.991ZM149.893 173L150.285 170.89H148.832L148.452 173H147.391L147.783 170.89H146.549L146.711 169.991H147.944L148.267 168.239H147.034L147.195 167.328H148.429L148.82 165.219H149.87L149.489 167.328H150.93L151.322 165.219H152.383L151.991 167.328H153.213L153.051 168.239H151.829L151.506 169.991H152.717L152.567 170.89H151.345L150.953 173H149.893ZM149.005 169.991H150.446L150.769 168.239H149.316L149.005 169.991ZM156.044 173V171.524H157.543V173H156.044ZM156.044 168.712V167.236H157.543V168.712H156.044ZM162.956 173V171.524H164.455V173H162.956ZM162.956 168.712V167.236H164.455V168.712H162.956ZM169.869 173V171.524H171.367V173H169.869ZM169.869 168.712V167.236H171.367V168.712H169.869ZM176.781 173V171.524H178.279V173H176.781ZM176.781 168.712V167.236H178.279V168.712H176.781ZM183.693 173V171.524H185.192V173H183.693ZM183.693 168.712V167.236H185.192V168.712H183.693ZM190.605 173V171.524H192.104V173H190.605ZM190.605 168.712V167.236H192.104V168.712H190.605ZM197.518 173V171.524H199.016V173H197.518ZM197.518 168.712V167.236H199.016V168.712H197.518ZM204.43 173V171.524H205.928V173H204.43ZM204.43 168.712V167.236H205.928V168.712H204.43ZM211.342 173V171.524H212.841V173H211.342ZM211.342 168.712V167.236H212.841V168.712H211.342ZM225.927 173L226.319 170.89H224.867L224.486 173H223.426L223.818 170.89H222.584L222.746 169.991H223.979L224.302 168.239H223.069L223.23 167.328H224.463L224.855 165.219H225.904L225.524 167.328H226.965L227.357 165.219H228.417L228.026 167.328H229.247L229.086 168.239H227.864L227.541 169.991H228.752L228.602 170.89H227.38L226.988 173H225.927ZM225.04 169.991H226.481L226.804 168.239H225.351L225.04 169.991ZM232.84 173L233.232 170.89H231.779L231.399 173H230.338L230.73 170.89H229.497L229.658 169.991H230.891L231.214 168.239H229.981L230.142 167.328H231.376L231.768 165.219H232.817L232.436 167.328H233.877L234.269 165.219H235.33L234.938 167.328H236.16L235.998 168.239H234.776L234.454 169.991H235.664L235.514 170.89H234.292L233.9 173H232.84ZM231.952 169.991H233.393L233.716 168.239H232.263L231.952 169.991ZM238.991 173V171.524H240.49V173H238.991ZM238.991 168.712V167.236H240.49V168.712H238.991ZM245.903 173V171.524H247.402V173H245.903ZM245.903 168.712V167.236H247.402V168.712H245.903ZM24.7109 184V182.524H26.2095V184H24.7109ZM24.7109 179.712V178.236H26.2095V179.712H24.7109ZM31.6231 184V182.524H33.1218V184H31.6231ZM31.6231 179.712V178.236H33.1218V179.712H31.6231ZM38.5354 184V182.524H40.034V184H38.5354ZM38.5354 179.712V178.236H40.034V179.712H38.5354ZM45.4476 184V182.524H46.9463V184H45.4476ZM45.4476 179.712V178.236H46.9463V179.712H45.4476ZM52.3599 184V182.524H53.8585V184H52.3599ZM52.3599 179.712V178.236H53.8585V179.712H52.3599ZM59.2722 184V182.524H60.7708V184H59.2722ZM59.2722 179.712V178.236H60.7708V179.712H59.2722ZM66.1844 184V182.524H67.6831V184H66.1844ZM73.0967 184V182.524H74.5953V184H73.0967ZM80.0089 184V182.524H81.5076V184H80.0089ZM80.0089 179.712V178.236H81.5076V179.712H80.0089ZM86.9212 184V182.524H88.4198V184H86.9212ZM86.9212 179.712V178.236H88.4198V179.712H86.9212ZM93.8335 184V182.524H95.3321V184H93.8335ZM93.8335 179.712V178.236H95.3321V179.712H93.8335ZM100.746 184V182.524H102.245V184H100.746ZM100.746 179.712V178.236H102.245V179.712H100.746ZM107.658 184V182.524H109.157V184H107.658ZM107.658 179.712V178.236H109.157V179.712H107.658ZM114.57 184V182.524H116.069V184H114.57ZM121.483 184V182.524H122.981V184H121.483ZM128.395 184V182.524H129.894V184H128.395ZM135.307 184V182.524H136.806V184H135.307ZM142.219 184V182.524H143.718V184H142.219ZM149.132 184V182.524H150.63V184H149.132ZM149.132 179.712V178.236H150.63V179.712H149.132ZM156.044 184V182.524H157.543V184H156.044ZM156.044 179.712V178.236H157.543V179.712H156.044ZM162.956 184V182.524H164.455V184H162.956ZM162.956 179.712V178.236H164.455V179.712H162.956ZM169.869 184V182.524H171.367V184H169.869ZM169.869 179.712V178.236H171.367V179.712H169.869ZM176.781 184V182.524H178.279V184H176.781ZM176.781 179.712V178.236H178.279V179.712H176.781ZM183.693 184V182.524H185.192V184H183.693ZM183.693 179.712V178.236H185.192V179.712H183.693ZM190.605 184V182.524H192.104V184H190.605ZM190.605 179.712V178.236H192.104V179.712H190.605ZM197.518 184V182.524H199.016V184H197.518ZM197.518 179.712V178.236H199.016V179.712H197.518ZM204.43 184V182.524H205.928V184H204.43ZM204.43 179.712V178.236H205.928V179.712H204.43ZM211.342 184V182.524H212.841V184H211.342ZM211.342 179.712V178.236H212.841V179.712H211.342ZM218.254 184V182.524H219.753V184H218.254ZM225.167 184V182.524H226.665V184H225.167ZM232.079 184V182.524H233.577V184H232.079ZM232.079 179.712V178.236H233.577V179.712H232.079ZM238.991 184V182.524H240.49V184H238.991ZM238.991 179.712V178.236H240.49V179.712H238.991ZM245.903 184V182.524H247.402V184H245.903ZM245.903 179.712V178.236H247.402V179.712H245.903Z" fill="#0A0B0D"/>
<path d="M0 5.75105C0 2.57483 2.57483 0 5.75105 0H414.249C417.425 0 420 2.57483 420 5.75105V40H0V5.75105Z" fill="#242E3D"/>
<path d="M37.2656 25.9995V15.0869H44.3984V16.5893H38.9421V19.6259H43.5918V21.1125H38.9421V24.497H44.5407V25.9995H37.2656ZM47.2706 25.9995V18.0918H48.8838V19.8789H49.1368C49.7378 18.6453 51.003 17.9495 52.6162 17.9495C52.6953 17.9495 52.9009 17.9495 53.1223 17.9811V19.6259C52.8851 19.5943 52.6953 19.5785 52.3473 19.5785C50.3546 19.5785 48.8838 20.8437 48.8838 22.4569V25.9995H47.2706ZM56.2792 25.9995V18.0918H57.8924V19.8789H58.1454C58.7464 18.6453 60.0116 17.9495 61.6248 17.9495C61.7039 17.9495 61.9095 17.9495 62.1309 17.9811V19.6259C61.8937 19.5943 61.7039 19.5785 61.3559 19.5785C59.3632 19.5785 57.8924 20.8437 57.8924 22.4569V25.9995H56.2792ZM67.7708 26.2367C65.4301 26.2367 63.6904 24.4654 63.6904 22.0457C63.6904 19.6259 65.4301 17.8546 67.7708 17.8546C70.1115 17.8546 71.8512 19.6259 71.8512 22.0457C71.8512 24.4654 70.1115 26.2367 67.7708 26.2367ZM67.7708 24.7817C69.1784 24.7817 70.1906 23.643 70.1906 22.0457C70.1906 20.4483 69.1784 19.3096 67.7708 19.3096C66.3632 19.3096 65.3511 20.4483 65.3511 22.0457C65.3511 23.643 66.3632 24.7817 67.7708 24.7817ZM74.2964 25.9995V18.0918H75.9096V19.8789H76.1626C76.7636 18.6453 78.0288 17.9495 79.642 17.9495C79.7211 17.9495 79.9267 17.9495 80.1481 17.9811V19.6259C79.9109 19.5943 79.7211 19.5785 79.3731 19.5785C77.3804 19.5785 75.9096 20.8437 75.9096 22.4569V25.9995H74.2964ZM95.8246 25.9995V23.5639H90.6055V21.7926L95.1762 15.3241H97.4378V22.2038H99.0826V23.5639H97.4378V25.9995H95.8246ZM92.0763 22.2038H95.8246V16.9847H95.5716L92.0763 21.9349V22.2038ZM103.821 26.2367C101.179 26.2367 99.7565 23.8644 99.7565 20.6539C99.7565 17.4434 101.179 15.0869 103.821 15.0869C106.446 15.0869 107.869 17.4434 107.869 20.6539C107.869 23.8644 106.446 26.2367 103.821 26.2367ZM103.821 24.7659C105.45 24.7659 106.225 23.1369 106.225 20.6539C106.225 20.2743 106.209 19.9106 106.161 19.5785L101.812 23.2476C102.192 24.2124 102.856 24.7659 103.821 24.7659ZM101.401 20.6539C101.401 21.0335 101.417 21.3972 101.448 21.7293L105.813 18.0602C105.434 17.1112 104.77 16.5577 103.821 16.5577C102.176 16.5577 101.401 18.1867 101.401 20.6539ZM113.841 25.9995V23.5639H108.622V21.7926L113.193 15.3241H115.455V22.2038H117.099V23.5639H115.455V25.9995H113.841ZM110.093 22.2038H113.841V16.9847H113.588L110.093 21.9349V22.2038Z" fill="#BEC5D1"/>
<path d="M23.1277 75.4389V74.2053C21.1033 73.9839 19.8697 72.7661 19.6641 71.1371H21.2457C21.4829 72.1335 22.2262 72.6396 23.1277 72.7977V69.176L22.8272 69.0969C21.3248 68.7332 19.9646 67.9266 19.9646 66.1078C19.9646 64.4946 21.2299 63.2769 23.1277 63.1029V61.8535H24.1557V63.1187C26.0219 63.3085 27.0499 64.4472 27.3346 65.9971H25.7847C25.5317 65.1273 24.9939 64.6054 24.1557 64.4472V67.895L24.5037 67.974C26.101 68.3536 27.5402 69.1444 27.5402 71.0897C27.5402 72.8135 26.2117 74.0946 24.1557 74.2211V75.4389H23.1277ZM21.5304 65.9655C21.5304 66.8195 22.0048 67.3098 23.1277 67.6261V64.4314C22.0997 64.5737 21.5304 65.2063 21.5304 65.9655ZM24.1557 72.8452C25.2153 72.7187 25.9112 72.0702 25.9112 71.1846C25.9112 70.2356 25.3735 69.777 24.1557 69.4291V72.8452Z" fill="#5B616E"/>
<path d="M38.2812 74.0001V63.0875H45.4141V64.5899H39.9578V67.6265H44.6075V69.1131H39.9578V72.4976H45.5564V74.0001H38.2812ZM48.2863 74.0001V66.0924H49.8995V67.8795H50.1525C50.7535 66.6459 52.0187 65.9501 53.6319 65.9501C53.711 65.9501 53.9166 65.9501 54.138 65.9817V67.6265C53.9008 67.5949 53.711 67.5791 53.363 67.5791C51.3703 67.5791 49.8995 68.8443 49.8995 70.4575V74.0001H48.2863ZM57.2949 74.0001V66.0924H58.9081V67.8795H59.1611C59.7621 66.6459 61.0273 65.9501 62.6405 65.9501C62.7196 65.9501 62.9252 65.9501 63.1466 65.9817V67.6265C62.9094 67.5949 62.7196 67.5791 62.3716 67.5791C60.3789 67.5791 58.9081 68.8443 58.9081 70.4575V74.0001H57.2949ZM68.7864 74.2373C66.4457 74.2373 64.7061 72.466 64.7061 70.0463C64.7061 67.6265 66.4457 65.8552 68.7864 65.8552C71.1271 65.8552 72.8668 67.6265 72.8668 70.0463C72.8668 72.466 71.1271 74.2373 68.7864 74.2373ZM68.7864 72.7823C70.194 72.7823 71.2062 71.6436 71.2062 70.0463C71.2062 68.4489 70.194 67.3102 68.7864 67.3102C67.3788 67.3102 66.3666 68.4489 66.3666 70.0463C66.3666 71.6436 67.3788 72.7823 68.7864 72.7823ZM75.3121 74.0001V66.0924H76.9252V67.8795H77.1782C77.7792 66.6459 79.0445 65.9501 80.6576 65.9501C80.7367 65.9501 80.9424 65.9501 81.1638 65.9817V67.6265C80.9265 67.5949 80.7368 67.5791 80.3888 67.5791C78.3961 67.5791 76.9252 68.8443 76.9252 70.4575V74.0001H75.3121ZM85.7757 74.0001V71.9757H87.8317V74.0001H85.7757ZM85.7757 68.1168V66.0924H87.8317V68.1168H85.7757ZM105.849 74.0001V71.5645H100.63V69.7932L105.201 63.3247H107.462V70.2044H109.107V71.5645H107.462V74.0001H105.849ZM102.101 70.2044H105.849V64.9853H105.596L102.101 69.9355V70.2044ZM113.845 74.2373C111.204 74.2373 109.781 71.865 109.781 68.6545C109.781 65.444 111.204 63.0875 113.845 63.0875C116.471 63.0875 117.894 65.444 117.894 68.6545C117.894 71.865 116.471 74.2373 113.845 74.2373ZM113.845 72.7665C115.474 72.7665 116.249 71.1375 116.249 68.6545C116.249 68.2749 116.234 67.9112 116.186 67.5791L111.837 71.2482C112.216 72.213 112.881 72.7665 113.845 72.7665ZM111.426 68.6545C111.426 69.0341 111.441 69.3978 111.473 69.7299L115.838 66.0608C115.459 65.1118 114.794 64.5583 113.845 64.5583C112.201 64.5583 111.426 66.1873 111.426 68.6545ZM123.866 74.0001V71.5645H118.647V69.7932L123.218 63.3247H125.479V70.2044H127.124V71.5645H125.479V74.0001H123.866ZM120.118 70.2044H123.866V64.9853H123.613L120.118 69.9355V70.2044ZM138.183 70.5049V69.0183H143.528V70.5049H138.183ZM155.188 74.0001V63.0875H159.252C161.292 63.0875 162.652 64.0364 162.652 65.8552C162.652 67.1362 162.004 67.8637 160.929 68.2275V68.4805C162.289 68.7652 163 69.6034 163 71.0426C163 72.9563 161.514 74.0001 159.521 74.0001H155.188ZM159.426 72.5293C160.549 72.5293 161.292 71.9125 161.292 70.8212C161.292 69.7774 160.549 69.1606 159.426 69.1606H156.864V72.5293H159.426ZM156.864 67.8005H159.078C160.201 67.8005 160.944 67.1995 160.944 66.1715C160.944 65.1277 160.185 64.5425 159.078 64.5425H156.864V67.8005ZM167.059 74.2373C165.525 74.2373 164.291 73.3359 164.291 71.8334C164.291 70.0621 165.714 69.5243 167.407 69.3504L169.747 69.0973V68.6703C169.747 67.7688 169.131 67.1837 167.992 67.1837C166.964 67.1837 166.315 67.6581 166.126 68.4647H164.56C164.766 66.9622 165.999 65.8552 167.992 65.8552C170.016 65.8552 171.266 66.8832 171.266 68.7494V72.6083C171.266 73.0986 171.313 73.7787 171.345 73.9685V74.0001H169.763C169.747 73.7312 169.747 73.3991 169.747 73.0828H169.479C169.004 73.8894 168.087 74.2373 167.059 74.2373ZM165.936 71.7385C165.936 72.5451 166.584 73.0037 167.47 73.0037C168.893 73.0037 169.747 71.9283 169.747 70.8687V70.2044L167.913 70.4258C166.679 70.5682 165.936 70.9003 165.936 71.7385ZM177.032 74.2373C174.992 74.2373 173.616 73.3042 173.363 71.7385H174.929C175.182 72.6083 176.036 72.9405 177.048 72.9405C178.028 72.9405 178.835 72.4976 178.835 71.8018C178.835 71.1059 178.155 70.8528 177.19 70.7105L176.273 70.5682C174.707 70.3467 173.648 69.7299 173.648 68.3066C173.648 66.8357 174.992 65.8552 176.874 65.8552C178.693 65.8552 179.958 66.6934 180.306 68.1642H178.772C178.503 67.4525 177.807 67.1204 176.874 67.1204C175.893 67.1204 175.229 67.5791 175.229 68.1642C175.229 68.8127 175.767 69.0341 176.747 69.1764L177.665 69.3187C179.294 69.556 180.401 70.2044 180.401 71.6594C180.401 73.2568 178.962 74.2373 177.032 74.2373ZM186.025 74.2373C183.589 74.2373 182.008 72.5293 182.008 70.0304C182.008 67.5791 183.653 65.8552 186.009 65.8552C188.429 65.8552 189.868 67.6581 189.868 70.0463V70.3151H183.573C183.637 71.8492 184.665 72.8456 186.025 72.8456C187.1 72.8456 187.78 72.466 188.113 71.7227H189.757C189.314 73.1935 187.891 74.2373 186.025 74.2373ZM183.621 69.2239H188.271C188.113 67.9903 187.227 67.1837 185.993 67.1837C184.791 67.1837 183.827 67.927 183.621 69.2239ZM199.993 74.0001V66.0924H201.385V66.6618H201.638C201.891 66.1557 202.334 65.8552 202.935 65.8552C203.552 65.8552 204.042 66.124 204.311 66.6618H204.548C204.896 66.1715 205.465 65.8552 206.13 65.8552C207.237 65.8552 207.933 66.6459 207.933 68.0851V74.0001H206.509V68.3066C206.509 67.6107 206.288 67.1046 205.655 67.1046C205.038 67.1046 204.675 67.6423 204.675 68.2749V74.0001H203.251V68.3066C203.251 67.6107 203.03 67.1046 202.413 67.1046C201.78 67.1046 201.433 67.6739 201.433 68.2907V74.0001H199.993ZM212.924 74.2373C210.583 74.2373 208.844 72.466 208.844 70.0463C208.844 67.6265 210.583 65.8552 212.924 65.8552C215.265 65.8552 217.005 67.6265 217.005 70.0463C217.005 72.466 215.265 74.2373 212.924 74.2373ZM212.924 72.7823C214.332 72.7823 215.344 71.6436 215.344 70.0463C215.344 68.4489 214.332 67.3102 212.924 67.3102C211.517 67.3102 210.504 68.4489 210.504 70.0463C210.504 71.6436 211.517 72.7823 212.924 72.7823ZM221.395 74.2373C219.276 74.2373 217.852 72.4976 217.852 70.1095C217.852 67.6739 219.386 65.8552 221.427 65.8552C222.534 65.8552 223.404 66.3613 223.799 67.2311H224.068V63.0875H225.681V74.0001H224.068V72.8772H223.799C223.356 73.7312 222.47 74.2373 221.395 74.2373ZM221.806 72.7981C223.119 72.7981 224.068 71.6752 224.068 70.0463C224.068 68.4173 223.119 67.2944 221.806 67.2944C220.414 67.2944 219.513 68.4647 219.513 70.0463C219.513 71.6278 220.446 72.7981 221.806 72.7981ZM230.894 74.2373C228.806 74.2373 227.509 72.9879 227.509 70.8212V66.0924H229.123V70.7896C229.123 71.9283 229.708 72.7823 230.894 72.7823C232.08 72.7823 232.665 71.9283 232.665 70.7896V66.0924H234.278V70.8212C234.278 72.9879 232.997 74.2373 230.894 74.2373ZM236.486 74.0001V72.7507H239.396V64.3369H236.787V63.0875H241.01V72.7507H243.904V74.0001H236.486ZM249.085 74.2373C246.649 74.2373 245.068 72.5293 245.068 70.0304C245.068 67.5791 246.713 65.8552 249.069 65.8552C251.489 65.8552 252.928 67.6581 252.928 70.0463V70.3151H246.634C246.697 71.8492 247.725 72.8456 249.085 72.8456C250.16 72.8456 250.841 72.466 251.173 71.7227H252.817C252.375 73.1935 250.951 74.2373 249.085 74.2373ZM246.681 69.2239H251.331C251.173 67.9903 250.287 67.1837 249.053 67.1837C247.851 67.1837 246.887 67.927 246.681 69.2239ZM263.591 74.0001V66.0924H265.204V67.1046H265.457C265.964 66.2664 266.786 65.8552 267.751 65.8552C269.364 65.8552 270.439 66.9622 270.439 68.7494V74.0001H268.826V69.2397C268.826 68.1642 268.32 67.326 267.102 67.326C265.948 67.326 265.204 68.2275 265.204 69.2397V74.0001H263.591ZM275.984 74.2373C273.644 74.2373 271.904 72.466 271.904 70.0463C271.904 67.6265 273.644 65.8552 275.984 65.8552C278.325 65.8552 280.065 67.6265 280.065 70.0463C280.065 72.466 278.325 74.2373 275.984 74.2373ZM275.984 72.7823C277.392 72.7823 278.404 71.6436 278.404 70.0463C278.404 68.4489 277.392 67.3102 275.984 67.3102C274.577 67.3102 273.565 68.4489 273.565 70.0463C273.565 71.6436 274.577 72.7823 275.984 72.7823ZM284.993 74.0634C284.155 74.0634 283.68 73.5573 283.68 72.6874V67.326H281.102V66.0924H283.712V63.9573H285.246V66.0924H288.425V67.326H285.278V72.1497C285.278 72.5925 285.42 72.7823 285.894 72.7823H288.551V74.0634H284.993ZM299.056 74.0001V72.7507H301.982V67.326H299.214V66.0924H301.998V64.4634C301.998 63.5778 302.52 63.04 303.374 63.04H306.727V64.3053H304.212C303.769 64.3053 303.579 64.5109 303.579 64.9537V66.0924H306.727V67.326H303.595V72.7507H306.885V74.0001H299.056ZM312.019 74.2373C309.678 74.2373 307.938 72.466 307.938 70.0463C307.938 67.6265 309.678 65.8552 312.019 65.8552C314.359 65.8552 316.099 67.6265 316.099 70.0463C316.099 72.466 314.359 74.2373 312.019 74.2373ZM312.019 72.7823C313.426 72.7823 314.438 71.6436 314.438 70.0463C314.438 68.4489 313.426 67.3102 312.019 67.3102C310.611 67.3102 309.599 68.4489 309.599 70.0463C309.599 71.6436 310.611 72.7823 312.019 72.7823ZM320.98 74.2373C318.892 74.2373 317.595 72.9879 317.595 70.8212V66.0924H319.209V70.7896C319.209 71.9283 319.794 72.7823 320.98 72.7823C322.166 72.7823 322.751 71.9283 322.751 70.7896V66.0924H324.364V70.8212C324.364 72.9879 323.083 74.2373 320.98 74.2373ZM326.651 74.0001V66.0924H328.265V67.1046H328.518C329.024 66.2664 329.846 65.8552 330.811 65.8552C332.424 65.8552 333.499 66.9622 333.499 68.7494V74.0001H331.886V69.2397C331.886 68.1642 331.38 67.326 330.162 67.326C329.008 67.326 328.265 68.2275 328.265 69.2397V74.0001H326.651ZM338.507 74.2373C336.388 74.2373 334.964 72.4976 334.964 70.1095C334.964 67.6739 336.498 65.8552 338.538 65.8552C339.645 65.8552 340.515 66.3613 340.911 67.2311H341.18V63.0875H342.793V74.0001H341.18V72.8772H340.911C340.468 73.7312 339.582 74.2373 338.507 74.2373ZM338.918 72.7981C340.231 72.7981 341.18 71.6752 341.18 70.0463C341.18 68.4173 340.231 67.2944 338.918 67.2944C337.526 67.2944 336.625 68.4647 336.625 70.0463C336.625 71.6278 337.558 72.7981 338.918 72.7981Z" fill="#0000FF"/>
<path d="M23.8725 209.237C21.3421 209.237 19.808 207.877 19.5391 206.043H21.2156C21.5477 207.292 22.6389 207.782 23.8725 207.782C25.1694 207.782 26.0393 207.086 26.0393 206.122C26.0393 205.094 25.3908 204.651 24.0149 204.334L22.7338 204.034C21.1365 203.654 19.9345 202.753 19.9345 201.029C19.9345 199.226 21.437 197.85 23.6511 197.85C25.976 197.85 27.2096 199.1 27.5575 200.903H25.9127C25.6122 199.859 24.8847 199.289 23.6669 199.289C22.3543 199.289 21.6268 200.001 21.6268 200.887C21.6268 201.804 22.2119 202.247 23.5404 202.547L24.8056 202.848C26.3714 203.212 27.7789 204.002 27.7789 205.963C27.7789 207.861 26.229 209.237 23.8725 209.237ZM32.7072 209.237C30.6195 209.237 29.3227 207.988 29.3227 205.821V201.092H30.9358V205.789C30.9358 206.928 31.521 207.782 32.7072 207.782C33.8933 207.782 34.4785 206.928 34.4785 205.789V201.092H36.0917V205.821C36.0917 207.988 34.8106 209.237 32.7072 209.237ZM38.6318 212.005V210.676H43.0126C43.6611 210.676 43.8983 210.423 43.8983 209.822V207.513H43.6294C43.2024 208.431 42.3009 208.984 41.099 208.984C39.0746 208.984 37.6512 207.308 37.6512 204.983C37.6512 202.611 39.2327 200.855 41.2571 200.855C42.4116 200.855 43.2024 201.424 43.6136 202.231H43.8825V201.092H45.4008V210.186C45.4008 211.356 44.7681 212.005 43.5504 212.005H38.6318ZM41.6051 207.592C42.9494 207.592 43.8983 206.501 43.8983 204.92C43.8983 203.338 42.9494 202.263 41.6051 202.263C40.2291 202.263 39.3118 203.37 39.3118 204.92C39.3118 206.454 40.2449 207.592 41.6051 207.592ZM47.6404 212.005V210.676H52.0212C52.6697 210.676 52.9069 210.423 52.9069 209.822V207.513H52.638C52.211 208.431 51.3095 208.984 50.1076 208.984C48.0832 208.984 46.6598 207.308 46.6598 204.983C46.6598 202.611 48.2413 200.855 50.2657 200.855C51.4202 200.855 52.211 201.424 52.6222 202.231H52.8911V201.092H54.4093V210.186C54.4093 211.356 53.7767 212.005 52.5589 212.005H47.6404ZM50.6137 207.592C51.958 207.592 52.9069 206.501 52.9069 204.92C52.9069 203.338 51.958 202.263 50.6137 202.263C49.2377 202.263 48.3204 203.37 48.3204 204.92C48.3204 206.454 49.2535 207.592 50.6137 207.592ZM59.9069 209.237C57.4714 209.237 55.8898 207.529 55.8898 205.03C55.8898 202.579 57.5346 200.855 59.8911 200.855C62.3109 200.855 63.7501 202.658 63.7501 205.046V205.315H57.4555C57.5188 206.849 58.5468 207.845 59.9069 207.845C60.9824 207.845 61.6624 207.466 61.9946 206.723H63.6394C63.1965 208.193 61.7731 209.237 59.9069 209.237ZM57.503 204.224H62.1527C61.9946 202.99 61.1089 202.184 59.8753 202.184C58.6733 202.184 57.7086 202.927 57.503 204.224ZM68.9313 209.237C66.8912 209.237 65.5152 208.304 65.2622 206.738H66.8279C67.0809 207.608 67.935 207.94 68.9472 207.94C69.9277 207.94 70.7343 207.498 70.7343 206.802C70.7343 206.106 70.0542 205.853 69.0895 205.71L68.1722 205.568C66.6065 205.347 65.5468 204.73 65.5468 203.306C65.5468 201.836 66.8912 200.855 68.7732 200.855C70.592 200.855 71.8572 201.693 72.2051 203.164H70.671C70.4022 202.452 69.7063 202.12 68.7732 202.12C67.7926 202.12 67.1284 202.579 67.1284 203.164C67.1284 203.813 67.6661 204.034 68.6467 204.176L69.564 204.319C71.1929 204.556 72.3 205.204 72.3 206.659C72.3 208.257 70.8608 209.237 68.9313 209.237ZM77.7976 209.063C76.9594 209.063 76.4849 208.557 76.4849 207.687V202.326H73.907V201.092H76.5165V198.957H78.0506V201.092H81.2295V202.326H78.0823V207.15C78.0823 207.592 78.2246 207.782 78.6991 207.782H81.3561V209.063H77.7976ZM83.3426 209V207.751H86.2527V202.342H83.6431V201.092H87.8658V207.751H90.76V209H83.3426ZM86.0787 199.875V198.087H88.0398V199.875H86.0787ZM95.8148 209.237C93.4741 209.237 91.7344 207.466 91.7344 205.046C91.7344 202.626 93.4741 200.855 95.8148 200.855C98.1555 200.855 99.8952 202.626 99.8952 205.046C99.8952 207.466 98.1555 209.237 95.8148 209.237ZM95.8148 207.782C97.2224 207.782 98.2345 206.644 98.2345 205.046C98.2345 203.449 97.2224 202.31 95.8148 202.31C94.4072 202.31 93.395 203.449 93.395 205.046C93.395 206.644 94.4072 207.782 95.8148 207.782ZM101.438 209V201.092H103.052V202.104H103.305C103.811 201.266 104.633 200.855 105.598 200.855C107.211 200.855 108.287 201.962 108.287 203.749V209H106.673V204.24C106.673 203.164 106.167 202.326 104.95 202.326C103.795 202.326 103.052 203.227 103.052 204.24V209H101.438ZM112.804 209V206.976H114.86V209H112.804ZM112.804 203.117V201.092H114.86V203.117H112.804Z" fill="#5B616E"/>
<path d="M128.714 212.005V210.676H133.095C133.744 210.676 133.981 210.423 133.981 209.822V207.513H133.712C133.285 208.431 132.383 208.984 131.182 208.984C129.157 208.984 127.734 207.308 127.734 204.983C127.734 202.611 129.315 200.855 131.34 200.855C132.494 200.855 133.285 201.424 133.696 202.231H133.965V201.092H135.483V210.186C135.483 211.356 134.851 212.005 133.633 212.005H128.714ZM131.688 207.592C133.032 207.592 133.981 206.501 133.981 204.92C133.981 203.338 133.032 202.263 131.688 202.263C130.312 202.263 129.394 203.37 129.394 204.92C129.394 206.454 130.327 207.592 131.688 207.592ZM168.402 209.237C167.295 209.237 166.409 208.684 166.014 207.893H165.745V209H164.132V198.087H165.745V202.263H166.014C166.441 201.424 167.342 200.855 168.497 200.855C170.553 200.855 171.961 202.595 171.961 204.983C171.961 207.418 170.426 209.237 168.402 209.237ZM168.007 207.798C169.398 207.798 170.3 206.628 170.3 205.046C170.3 203.465 169.367 202.294 168.022 202.294C166.694 202.294 165.745 203.417 165.745 205.046C165.745 206.691 166.694 207.798 168.007 207.798ZM176.066 209.237C174.532 209.237 173.299 208.336 173.299 206.833C173.299 205.062 174.722 204.524 176.414 204.35L178.755 204.097V203.67C178.755 202.769 178.138 202.184 176.999 202.184C175.971 202.184 175.323 202.658 175.133 203.465H173.568C173.773 201.962 175.007 200.855 176.999 200.855C179.024 200.855 180.273 201.883 180.273 203.749V207.608C180.273 208.099 180.321 208.779 180.352 208.968V209H178.771C178.755 208.731 178.755 208.399 178.755 208.083H178.486C178.012 208.889 177.094 209.237 176.066 209.237ZM174.943 206.738C174.943 207.545 175.592 208.004 176.478 208.004C177.901 208.004 178.755 206.928 178.755 205.869V205.204L176.92 205.426C175.687 205.568 174.943 205.9 174.943 206.738ZM186.071 209.237C183.826 209.237 182.007 207.592 182.007 205.046C182.007 202.5 183.826 200.855 186.071 200.855C187.985 200.855 189.472 201.978 189.851 203.797H188.254C187.938 202.864 187.178 202.31 186.087 202.31C184.743 202.31 183.667 203.338 183.667 205.03C183.667 206.754 184.743 207.782 186.087 207.782C187.178 207.782 187.969 207.213 188.285 206.232H189.899C189.535 208.051 188.048 209.237 186.071 209.237ZM191.648 209V198.087H193.261V204.493H193.53L196.883 201.092H198.828L194.906 204.904L199.018 209H196.978L193.53 205.552H193.261V209H191.648ZM212.923 209.063C212.085 209.063 211.61 208.557 211.61 207.687V202.326H209.033V201.092H211.642V198.957H213.176V201.092H216.355V202.326H213.208V207.15C213.208 207.592 213.35 207.782 213.825 207.782H216.482V209.063H212.923ZM221.932 209.237C219.591 209.237 217.851 207.466 217.851 205.046C217.851 202.626 219.591 200.855 221.932 200.855C224.272 200.855 226.012 202.626 226.012 205.046C226.012 207.466 224.272 209.237 221.932 209.237ZM221.932 207.782C223.339 207.782 224.351 206.644 224.351 205.046C224.351 203.449 223.339 202.31 221.932 202.31C220.524 202.31 219.512 203.449 219.512 205.046C219.512 206.644 220.524 207.782 221.932 207.782ZM240.479 209.237C239.372 209.237 238.487 208.684 238.091 207.893H237.822V209H236.209V198.087H237.822V202.263H238.091C238.518 201.424 239.42 200.855 240.574 200.855C242.63 200.855 244.038 202.595 244.038 204.983C244.038 207.418 242.504 209.237 240.479 209.237ZM240.084 207.798C241.476 207.798 242.377 206.628 242.377 205.046C242.377 203.465 241.444 202.294 240.1 202.294C238.771 202.294 237.822 203.417 237.822 205.046C237.822 206.691 238.771 207.798 240.084 207.798ZM248.144 209.237C246.61 209.237 245.376 208.336 245.376 206.833C245.376 205.062 246.799 204.524 248.492 204.35L250.832 204.097V203.67C250.832 202.769 250.216 202.184 249.077 202.184C248.049 202.184 247.4 202.658 247.211 203.465H245.645C245.85 201.962 247.084 200.855 249.077 200.855C251.101 200.855 252.351 201.883 252.351 203.749V207.608C252.351 208.099 252.398 208.779 252.43 208.968V209H250.848C250.832 208.731 250.832 208.399 250.832 208.083H250.563C250.089 208.889 249.172 209.237 248.144 209.237ZM247.021 206.738C247.021 207.545 247.669 208.004 248.555 208.004C249.978 208.004 250.832 206.928 250.832 205.869V205.204L248.998 205.426C247.764 205.568 247.021 205.9 247.021 206.738ZM258.117 209.237C256.077 209.237 254.701 208.304 254.448 206.738H256.014C256.267 207.608 257.121 207.94 258.133 207.94C259.113 207.94 259.92 207.498 259.92 206.802C259.92 206.106 259.24 205.853 258.275 205.71L257.358 205.568C255.792 205.347 254.733 204.73 254.733 203.306C254.733 201.836 256.077 200.855 257.959 200.855C259.778 200.855 261.043 201.693 261.391 203.164H259.857C259.588 202.452 258.892 202.12 257.959 202.12C256.978 202.12 256.314 202.579 256.314 203.164C256.314 203.813 256.852 204.034 257.832 204.176L258.75 204.319C260.379 204.556 261.486 205.204 261.486 206.659C261.486 208.257 260.047 209.237 258.117 209.237ZM267.11 209.237C264.674 209.237 263.093 207.529 263.093 205.03C263.093 202.579 264.738 200.855 267.094 200.855C269.514 200.855 270.953 202.658 270.953 205.046V205.315H264.658C264.722 206.849 265.75 207.845 267.11 207.845C268.185 207.845 268.865 207.466 269.197 206.723H270.842C270.399 208.193 268.976 209.237 267.11 209.237ZM264.706 204.224H269.356C269.197 202.99 268.312 202.184 267.078 202.184C265.876 202.184 264.911 202.927 264.706 204.224Z" fill="#0000FF"/>
<path d="M140.982 209.237C138.546 209.237 136.965 207.529 136.965 205.03C136.965 202.579 138.61 200.855 140.966 200.855C143.386 200.855 144.825 202.658 144.825 205.046V205.315H138.531C138.594 206.849 139.622 207.845 140.982 207.845C142.057 207.845 142.737 207.466 143.07 206.723H144.714C144.271 208.193 142.848 209.237 140.982 209.237ZM138.578 204.224H143.228C143.07 202.99 142.184 202.184 140.95 202.184C139.748 202.184 138.784 202.927 138.578 204.224ZM149.864 209.063C149.026 209.063 148.551 208.557 148.551 207.687V202.326H145.973V201.092H148.583V198.957H150.117V201.092H153.296V202.326H150.149V207.15C150.149 207.592 150.291 207.782 150.765 207.782H153.422V209.063H149.864Z" fill="#0000FF"/>
<path d="M23.9167 254.237C21.6393 254.237 19.8047 252.055 19.8047 248.544C19.8047 245.033 21.6393 242.85 23.9167 242.85C25.9727 242.85 27.3012 244.448 27.7124 246.836H26.0043C25.7671 245.349 25.0238 244.384 23.9167 244.384C22.5091 244.384 21.5127 245.997 21.5127 248.544C21.5127 251.09 22.5091 252.703 23.9167 252.703C25.0396 252.703 25.7671 251.802 26.0043 250.41H27.7282C27.317 252.703 25.9727 254.237 23.9167 254.237ZM29.2877 254V252.751H32.1978V244.337H29.5882V243.087H33.8109V252.751H36.7052V254H29.2877ZM38.2963 254V252.751H41.2064V247.342H38.5968V246.092H42.8195V252.751H45.7138V254H38.2963ZM41.0324 244.875V243.087H42.9935V244.875H41.0324ZM50.9425 254.237C48.6967 254.237 46.8779 252.592 46.8779 250.046C46.8779 247.5 48.6967 245.855 50.9425 245.855C52.8561 245.855 54.3428 246.978 54.7224 248.797H53.125C52.8087 247.864 52.0496 247.31 50.9583 247.31C49.614 247.31 48.5385 248.338 48.5385 250.03C48.5385 251.754 49.614 252.782 50.9583 252.782C52.0496 252.782 52.8403 252.213 53.1566 251.232H54.7698C54.406 253.051 52.9194 254.237 50.9425 254.237ZM56.5191 254V243.087H58.1323V249.493H58.4012L61.754 246.092H63.6993L59.7771 249.904L63.8891 254H61.8489L58.4012 250.552H58.1323V254H56.5191ZM74.4098 254V243.087H76.023V247.104H76.276C76.7821 246.266 77.6045 245.855 78.5693 245.855C80.1824 245.855 81.2579 246.962 81.2579 248.749V254H79.6447V249.24C79.6447 248.164 79.1386 247.326 77.9208 247.326C76.7663 247.326 76.023 248.227 76.023 249.24V254H74.4098ZM86.9294 254.237C84.4938 254.237 82.9123 252.529 82.9123 250.03C82.9123 247.579 84.5571 245.855 86.9136 245.855C89.3334 245.855 90.7726 247.658 90.7726 250.046V250.315H84.478C84.5413 251.849 85.5693 252.845 86.9294 252.845C88.0049 252.845 88.6849 252.466 89.017 251.723H90.6618C90.219 253.193 88.7956 254.237 86.9294 254.237ZM84.5255 249.224H89.1752C89.017 247.99 88.1314 247.184 86.8978 247.184C85.6958 247.184 84.7311 247.927 84.5255 249.224ZM93.3285 254V246.092H94.9416V247.879H95.1947C95.7957 246.646 97.0609 245.95 98.6741 245.95C98.7532 245.95 98.9588 245.95 99.1802 245.982V247.626C98.9429 247.595 98.7532 247.579 98.4052 247.579C96.4125 247.579 94.9416 248.844 94.9416 250.457V254H93.3285ZM104.947 254.237C102.511 254.237 100.929 252.529 100.929 250.03C100.929 247.579 102.574 245.855 104.931 245.855C107.35 245.855 108.79 247.658 108.79 250.046V250.315H102.495C102.558 251.849 103.586 252.845 104.947 252.845C106.022 252.845 106.702 252.466 107.034 251.723H108.679C108.236 253.193 106.813 254.237 104.947 254.237ZM102.543 249.224H107.192C107.034 247.99 106.148 247.184 104.915 247.184C103.713 247.184 102.748 247.927 102.543 249.224ZM122.837 254.063C121.999 254.063 121.524 253.557 121.524 252.687V247.326H118.947V246.092H121.556V243.957H123.09V246.092H126.269V247.326H123.122V252.15C123.122 252.592 123.264 252.782 123.739 252.782H126.396V254.063H122.837ZM131.846 254.237C129.505 254.237 127.765 252.466 127.765 250.046C127.765 247.626 129.505 245.855 131.846 245.855C134.186 245.855 135.926 247.626 135.926 250.046C135.926 252.466 134.186 254.237 131.846 254.237ZM131.846 252.782C133.253 252.782 134.266 251.644 134.266 250.046C134.266 248.449 133.253 247.31 131.846 247.31C130.438 247.31 129.426 248.449 129.426 250.046C129.426 251.644 130.438 252.782 131.846 252.782ZM147.38 254V246.092H148.993V247.879H149.246C149.847 246.646 151.112 245.95 152.726 245.95C152.805 245.95 153.01 245.95 153.232 245.982V247.626C152.994 247.595 152.805 247.579 152.457 247.579C150.464 247.579 148.993 248.844 148.993 250.457V254H147.38ZM158.998 254.237C156.563 254.237 154.981 252.529 154.981 250.03C154.981 247.579 156.626 245.855 158.982 245.855C161.402 245.855 162.841 247.658 162.841 250.046V250.315H156.547C156.61 251.849 157.638 252.845 158.998 252.845C160.074 252.845 160.754 252.466 161.086 251.723H162.731C162.288 253.193 160.864 254.237 158.998 254.237ZM156.594 249.224H161.244C161.086 247.99 160.2 247.184 158.966 247.184C157.764 247.184 156.8 247.927 156.594 249.224ZM168.402 254.237C167.295 254.237 166.409 253.684 166.014 252.893H165.745V254H164.132V243.087H165.745V247.263H166.014C166.441 246.424 167.342 245.855 168.497 245.855C170.553 245.855 171.961 247.595 171.961 249.983C171.961 252.418 170.426 254.237 168.402 254.237ZM168.007 252.798C169.398 252.798 170.3 251.628 170.3 250.046C170.3 248.465 169.367 247.294 168.022 247.294C166.694 247.294 165.745 248.417 165.745 250.046C165.745 251.691 166.694 252.798 168.007 252.798ZM176.889 254.237C174.548 254.237 172.808 252.466 172.808 250.046C172.808 247.626 174.548 245.855 176.889 245.855C179.229 245.855 180.969 247.626 180.969 250.046C180.969 252.466 179.229 254.237 176.889 254.237ZM176.889 252.782C178.296 252.782 179.309 251.644 179.309 250.046C179.309 248.449 178.296 247.31 176.889 247.31C175.481 247.31 174.469 248.449 174.469 250.046C174.469 251.644 175.481 252.782 176.889 252.782ZM185.897 254.237C183.557 254.237 181.817 252.466 181.817 250.046C181.817 247.626 183.557 245.855 185.897 245.855C188.238 245.855 189.978 247.626 189.978 250.046C189.978 252.466 188.238 254.237 185.897 254.237ZM185.897 252.782C187.305 252.782 188.317 251.644 188.317 250.046C188.317 248.449 187.305 247.31 185.897 247.31C184.49 247.31 183.478 248.449 183.478 250.046C183.478 251.644 184.49 252.782 185.897 252.782ZM194.906 254.063C194.068 254.063 193.593 253.557 193.593 252.687V247.326H191.015V246.092H193.625V243.957H195.159V246.092H198.338V247.326H195.191V252.15C195.191 252.592 195.333 252.782 195.807 252.782H198.464V254.063H194.906ZM209.238 254V243.087H213.303C215.343 243.087 216.703 244.036 216.703 245.855C216.703 247.136 216.055 247.864 214.979 248.227V248.48C216.339 248.765 217.051 249.603 217.051 251.043C217.051 252.956 215.564 254 213.572 254H209.238ZM213.477 252.529C214.6 252.529 215.343 251.912 215.343 250.821C215.343 249.777 214.6 249.16 213.477 249.16H210.915V252.529H213.477ZM210.915 247.8H213.129C214.252 247.8 214.995 247.199 214.995 246.171C214.995 245.128 214.236 244.542 213.129 244.542H210.915V247.8ZM221.109 254.237C219.575 254.237 218.342 253.336 218.342 251.833C218.342 250.062 219.765 249.524 221.457 249.35L223.798 249.097V248.67C223.798 247.769 223.181 247.184 222.042 247.184C221.014 247.184 220.366 247.658 220.176 248.465H218.611C218.816 246.962 220.05 245.855 222.042 245.855C224.067 245.855 225.316 246.883 225.316 248.749V252.608C225.316 253.099 225.364 253.779 225.395 253.968V254H223.814C223.798 253.731 223.798 253.399 223.798 253.083H223.529C223.055 253.889 222.137 254.237 221.109 254.237ZM219.986 251.738C219.986 252.545 220.635 253.004 221.521 253.004C222.944 253.004 223.798 251.928 223.798 250.869V250.204L221.963 250.426C220.73 250.568 219.986 250.9 219.986 251.738ZM231.083 254.237C229.042 254.237 227.667 253.304 227.413 251.738H228.979C229.232 252.608 230.086 252.94 231.098 252.94C232.079 252.94 232.886 252.498 232.886 251.802C232.886 251.106 232.206 250.853 231.241 250.71L230.324 250.568C228.758 250.347 227.698 249.73 227.698 248.306C227.698 246.836 229.042 245.855 230.925 245.855C232.743 245.855 234.009 246.693 234.356 248.164H232.822C232.553 247.452 231.858 247.12 230.925 247.12C229.944 247.12 229.28 247.579 229.28 248.164C229.28 248.813 229.817 249.034 230.798 249.176L231.715 249.319C233.344 249.556 234.451 250.204 234.451 251.659C234.451 253.257 233.012 254.237 231.083 254.237ZM240.075 254.237C237.64 254.237 236.058 252.529 236.058 250.03C236.058 247.579 237.703 245.855 240.06 245.855C242.479 245.855 243.919 247.658 243.919 250.046V250.315H237.624C237.687 251.849 238.715 252.845 240.075 252.845C241.151 252.845 241.831 252.466 242.163 251.723H243.808C243.365 253.193 241.942 254.237 240.075 254.237ZM237.672 249.224H242.321C242.163 247.99 241.277 247.184 240.044 247.184C238.842 247.184 237.877 247.927 237.672 249.224Z" fill="#5B616E"/>
<path d="M19.2852 232L22.5431 221.087H25.042L28.1892 232H26.4496L25.7062 229.232H21.7524L20.9774 232H19.2852ZM22.1478 227.809H25.3108L23.9033 222.59H23.6186L22.1478 227.809ZM29.0371 232V221.087H33.4654C35.4265 221.087 36.8815 222.289 36.8815 224.235C36.8815 226.212 35.4265 227.461 33.4496 227.461H30.7135V232H29.0371ZM30.6819 225.974H33.3073C34.446 225.974 35.1735 225.358 35.1735 224.298C35.1735 223.222 34.446 222.574 33.3073 222.574H30.6819V225.974ZM38.0615 232V230.498H40.9083V222.59H38.0615V221.087H45.4473V222.59H42.6005V230.498H45.4473V232H38.0615ZM56.0945 232V221.087H57.7709V225.753H58.0714L62.1202 221.087H64.1129L59.3841 226.433L64.4134 232H62.2942L58.0714 227.303H57.7709V232H56.0945ZM68.9146 232.237C66.4791 232.237 64.8975 230.529 64.8975 228.03C64.8975 225.579 66.5423 223.855 68.8988 223.855C71.3186 223.855 72.7578 225.658 72.7578 228.046V228.315H66.4632C66.5265 229.849 67.5545 230.845 68.9146 230.845C69.9901 230.845 70.6701 230.466 71.0023 229.723H72.6471C72.2042 231.193 70.7808 232.237 68.9146 232.237ZM66.5107 227.224H71.1604C71.0023 225.99 70.1166 225.184 68.883 225.184C67.681 225.184 66.7163 225.927 66.5107 227.224ZM74.2066 235.005V233.708H75.6932C76.2784 233.708 76.5315 233.502 76.7529 232.886L77.0059 232.174L73.6689 224.092H75.3611L77.686 230.165H77.9549L80.3272 224.092H82.0036L77.939 233.676C77.5278 234.625 77.0534 235.005 75.9463 235.005H74.2066ZM85.7773 232V229.976H87.8333V232H85.7773ZM85.7773 226.117V224.092H87.8333V226.117H85.7773Z" fill="#5B616E"/>
<path d="M101.137 232V221.087H104.047L106.688 230.339H106.989V221.087H108.507V232H105.597L102.956 222.748H102.655V232H101.137ZM113.831 232.237C111.49 232.237 109.75 230.466 109.75 228.046C109.75 225.626 111.49 223.855 113.831 223.855C116.171 223.855 117.911 225.626 117.911 228.046C117.911 230.466 116.171 232.237 113.831 232.237ZM113.831 230.782C115.238 230.782 116.25 229.644 116.25 228.046C116.25 226.449 115.238 225.31 113.831 225.31C112.423 225.31 111.411 226.449 111.411 228.046C111.411 229.644 112.423 230.782 113.831 230.782ZM122.839 232.063C122.001 232.063 121.526 231.557 121.526 230.687V225.326H118.949V224.092H121.558V221.957H123.092V224.092H126.271V225.326H123.124V230.15C123.124 230.592 123.266 230.782 123.741 230.782H126.398V232.063H122.839ZM137.472 232V224.092H139.085V225.104H139.338C139.844 224.266 140.667 223.855 141.631 223.855C143.244 223.855 144.32 224.962 144.32 226.749V232H142.707V227.24C142.707 226.164 142.201 225.326 140.983 225.326C139.828 225.326 139.085 226.227 139.085 227.24V232H137.472ZM149.991 232.237C147.556 232.237 145.974 230.529 145.974 228.03C145.974 225.579 147.619 223.855 149.976 223.855C152.395 223.855 153.835 225.658 153.835 228.046V228.315H147.54C147.603 229.849 148.631 230.845 149.991 230.845C151.067 230.845 151.747 230.466 152.079 229.723H153.724C153.281 231.193 151.858 232.237 149.991 232.237ZM147.588 227.224H152.237C152.079 225.99 151.193 225.184 149.96 225.184C148.758 225.184 147.793 225.927 147.588 227.224ZM159 232.237C156.565 232.237 154.983 230.529 154.983 228.03C154.983 225.579 156.628 223.855 158.984 223.855C161.404 223.855 162.843 225.658 162.843 228.046V228.315H156.549C156.612 229.849 157.64 230.845 159 230.845C160.076 230.845 160.756 230.466 161.088 229.723H162.733C162.29 231.193 160.866 232.237 159 232.237ZM156.596 227.224H161.246C161.088 225.99 160.202 225.184 158.968 225.184C157.766 225.184 156.802 225.927 156.596 227.224ZM167.344 232.237C165.225 232.237 163.802 230.498 163.802 228.109C163.802 225.674 165.336 223.855 167.376 223.855C168.483 223.855 169.353 224.361 169.748 225.231H170.017V221.087H171.63V232H170.017V230.877H169.748C169.306 231.731 168.42 232.237 167.344 232.237ZM167.756 230.798C169.068 230.798 170.017 229.675 170.017 228.046C170.017 226.417 169.068 225.294 167.756 225.294C166.364 225.294 165.462 226.465 165.462 228.046C165.462 229.628 166.396 230.798 167.756 230.798ZM177.017 232.237C174.582 232.237 173 230.529 173 228.03C173 225.579 174.645 223.855 177.001 223.855C179.421 223.855 180.86 225.658 180.86 228.046V228.315H174.566C174.629 229.849 175.657 230.845 177.017 230.845C178.093 230.845 178.773 230.466 179.105 229.723H180.75C180.307 231.193 178.883 232.237 177.017 232.237ZM174.613 227.224H179.263C179.105 225.99 178.219 225.184 176.986 225.184C175.784 225.184 174.819 225.927 174.613 227.224ZM185.362 232.237C183.242 232.237 181.819 230.498 181.819 228.109C181.819 225.674 183.353 223.855 185.393 223.855C186.5 223.855 187.37 224.361 187.766 225.231H188.034V221.087H189.648V232H188.034V230.877H187.766C187.323 231.731 186.437 232.237 185.362 232.237ZM185.773 230.798C187.086 230.798 188.034 229.675 188.034 228.046C188.034 226.417 187.086 225.294 185.773 225.294C184.381 225.294 183.48 226.465 183.48 228.046C183.48 229.628 184.413 230.798 185.773 230.798Z" fill="#0000FF"/>
<path d="M27.2 12H12.8C12.3587 12 12 12.3587 12 12.8V27.2C12 27.6413 12.3587 28 12.8 28H27.2C27.6413 28 28 27.6413 28 27.2V12.8C28 12.3587 27.6413 12 27.2 12Z" fill="#0000FF"/>
</g>
<defs>
<clipPath id="clip0_2125_7696">
<rect width="420" height="286" fill="white"/>
</clipPath>
</defs>
</svg>
