<svg width="1920" height="1080" viewBox="0 0 1920 1080" fill="none" xmlns="http://www.w3.org/2000/svg">
<rect width="1920" height="1080" fill="#FAFAFA"/>
<g clip-path="url(#clip0_1_9)">
<path d="M1570.91 579.27C1564.76 579.27 1558.84 577.034 1555.37 571.109H1553.36V577.593H1539.38V500.46H1553.36V528.519H1555.37C1558.95 522.37 1565.65 520.023 1571.69 520.023C1586.78 520.023 1596.95 532.096 1596.95 549.087C1596.95 566.414 1585.78 579.27 1570.91 579.27ZM1567.89 566.749C1576.5 566.749 1582.65 559.707 1582.65 549.646C1582.65 539.585 1576.39 532.543 1567.89 532.543C1559.51 532.543 1553.36 539.25 1553.36 549.646C1553.36 560.042 1559.51 566.749 1567.89 566.749ZM1622.78 579.27C1612.05 579.27 1603.33 572.786 1603.33 562.166C1603.33 549.646 1612.94 545.622 1624.57 544.392L1641 542.715V539.585C1641 534.779 1637.09 531.425 1630.16 531.425C1623.56 531.425 1619.76 534.332 1618.53 538.691H1605.11C1606.46 528.072 1615.29 520.023 1630.16 520.023C1644.46 520.023 1653.97 526.954 1653.97 540.48V567.756C1653.97 571.221 1654.3 576.028 1654.52 577.369V577.593H1641.11C1641 575.692 1641 573.904 1641 572.003H1638.99C1635.52 577.593 1629.48 579.27 1622.78 579.27ZM1626.58 568.762C1635.74 568.762 1641 561.831 1641 554.788V551.994L1628.7 553.447C1621.1 554.341 1617.41 556.577 1617.41 561.496C1617.41 566.079 1621.21 568.762 1626.58 568.762ZM1687.5 579.27C1673.42 579.27 1663.36 572.227 1661.79 561.16H1675.54C1677.11 566.079 1682.25 568.203 1687.61 568.203C1693.09 568.203 1697.56 565.855 1697.56 561.719C1697.56 557.583 1693.31 556.465 1687.5 555.459L1681.58 554.453C1670.4 552.553 1663.47 547.858 1663.47 537.797C1663.47 526.842 1673.08 520.023 1686.38 520.023C1699.35 520.023 1707.96 526.059 1710.31 536.567H1696.89C1695.33 532.431 1691.19 530.754 1686.5 530.754C1680.79 530.754 1677.11 533.214 1677.11 536.679C1677.11 540.256 1680.01 541.374 1686.05 542.38L1691.97 543.386C1702.82 545.175 1711.09 549.646 1711.09 560.489C1711.09 572.339 1701.25 579.27 1687.5 579.27ZM1746.08 579.27C1728.86 579.27 1717.46 567.532 1717.46 549.534C1717.46 531.872 1729.53 520.023 1746.19 520.023C1763.63 520.023 1773.69 532.99 1773.69 550.093V552.553H1731.1C1731.77 561.831 1738.25 567.308 1746.08 567.308C1752.56 567.308 1756.47 565.073 1758.37 561.16H1772.68C1769.78 571.668 1759.38 579.27 1746.08 579.27ZM1760.05 543.274C1758.93 535.785 1753.01 531.425 1746.08 531.425C1738.81 531.425 1732.66 535.673 1731.32 543.274H1760.05Z" fill="#0A0B0D"/>
<path d="M1465.35 577.593C1463.12 577.593 1462 576.475 1462 574.239V525.053C1462 522.818 1463.12 521.7 1465.35 521.7H1514.54C1516.78 521.7 1517.89 522.818 1517.89 525.053V574.239C1517.89 576.475 1516.78 577.593 1514.54 577.593H1465.35Z" fill="#0000FF"/>
</g>
<rect width="780" height="780" transform="translate(246 150)" fill="#DEDEDE"/>
<path d="M526.784 552V529.92H530.176V548.96H541.728V552H526.784ZM551.192 552.48C546.392 552.48 542.872 548.896 542.872 544C542.872 539.104 546.392 535.52 551.192 535.52C555.96 535.52 559.512 539.104 559.512 544C559.512 548.896 555.96 552.48 551.192 552.48ZM551.192 549.536C554.072 549.536 556.152 547.232 556.152 544C556.152 540.768 554.072 538.464 551.192 538.464C548.248 538.464 546.232 540.768 546.232 544C546.232 547.232 548.248 549.536 551.192 549.536ZM564.527 558.08V555.392H573.391C574.703 555.392 575.183 554.88 575.183 553.664V548.992H574.639C573.647 551.104 571.567 551.968 569.487 551.968C564.975 551.968 561.967 548.576 561.967 543.872C561.967 539.104 565.263 535.52 569.807 535.52C571.791 535.52 573.615 536.352 574.607 538.304H575.151V536H578.223V554.4C578.223 556.768 576.943 558.08 574.479 558.08H564.527ZM570.255 549.152C573.071 549.152 575.183 546.944 575.183 543.744C575.183 540.544 573.071 538.368 570.255 538.368C567.311 538.368 565.327 540.672 565.327 543.744C565.327 546.848 567.311 549.152 570.255 549.152ZM590.192 552.48C585.392 552.48 581.872 548.896 581.872 544C581.872 539.104 585.392 535.52 590.192 535.52C594.96 535.52 598.512 539.104 598.512 544C598.512 548.896 594.96 552.48 590.192 552.48ZM590.192 549.536C593.072 549.536 595.152 547.232 595.152 544C595.152 540.768 593.072 538.464 590.192 538.464C587.248 538.464 585.232 540.768 585.232 544C585.232 547.232 587.248 549.536 590.192 549.536ZM617.172 552.48C612.084 552.48 608.884 549.824 608.243 546.016H611.7C612.468 548.576 614.708 549.536 617.172 549.536C619.892 549.536 621.748 548.128 621.748 546.176C621.748 544.096 620.34 543.2 617.46 542.56L614.836 541.952C611.86 541.28 609.012 539.616 609.012 535.872C609.012 532.224 612.148 529.44 616.724 529.44C621.364 529.44 624.02 531.872 624.819 535.616H621.396C620.724 533.408 619.156 532.352 616.756 532.352C614.004 532.352 612.436 533.792 612.436 535.584C612.436 537.472 613.748 538.304 616.5 538.944L619.092 539.584C622.228 540.32 625.236 541.856 625.236 545.856C625.236 549.696 622.036 552.48 617.172 552.48ZM633.507 552.48C630.403 552.48 627.907 550.656 627.907 547.616C627.907 544.032 630.819 542.944 634.211 542.592L638.947 542.08V541.216C638.947 539.392 637.699 538.208 635.427 538.208C633.347 538.208 632.003 539.168 631.619 540.8H628.483C628.867 537.76 631.395 535.52 635.427 535.52C639.523 535.52 642.019 537.6 642.019 541.376V549.184C642.019 550.176 642.115 551.552 642.179 551.936V552H638.979C638.947 551.456 638.947 550.784 638.947 550.144H638.403C637.475 551.776 635.619 552.48 633.507 552.48ZM631.235 547.424C631.235 549.056 632.547 549.984 634.339 549.984C637.251 549.984 638.947 547.808 638.947 545.664V544.32L635.267 544.768C632.739 545.056 631.235 545.728 631.235 547.424ZM647.615 552V538.496H644.703V536H647.615V532.64C647.615 530.88 648.671 529.824 650.399 529.824H654.623V532.384H651.903C651.103 532.384 650.751 532.736 650.751 533.568V536H654.623V538.496H650.783V552H647.615ZM664.158 552.48C659.198 552.48 655.998 549.024 655.998 543.968C655.998 539.008 659.326 535.52 664.094 535.52C668.99 535.52 671.902 539.168 671.902 544V544.544H659.166C659.294 547.648 661.374 549.664 664.158 549.664C666.302 549.664 667.678 548.896 668.35 547.392H671.678C670.782 550.368 667.934 552.48 664.158 552.48ZM659.262 542.336H668.67C668.382 539.84 666.59 538.208 664.094 538.208C661.662 538.208 659.678 539.712 659.262 542.336ZM680.163 552L687.779 529.92H692.771L700.195 552H696.643L694.851 546.4H685.443L683.587 552H680.163ZM686.403 543.52H693.891L690.499 532.96H689.923L686.403 543.52ZM703.026 552V536H706.258V538.944H706.802C707.634 536.896 709.746 535.712 712.242 535.712H712.466V539.2C711.954 539.136 711.73 539.136 711.218 539.136C708.434 539.136 706.29 540.8 706.29 544.288V552H703.026ZM722.033 552.48C717.073 552.48 713.873 549.024 713.873 543.968C713.873 539.008 717.201 535.52 721.969 535.52C726.865 535.52 729.777 539.168 729.777 544V544.544H717.041C717.169 547.648 719.249 549.664 722.033 549.664C724.177 549.664 725.553 548.896 726.225 547.392H729.553C728.657 550.368 725.809 552.48 722.033 552.48ZM717.137 542.336H726.545C726.257 539.84 724.465 538.208 721.969 538.208C719.537 538.208 717.553 539.712 717.137 542.336ZM737.944 552.48C734.84 552.48 732.344 550.656 732.344 547.616C732.344 544.032 735.256 542.944 738.648 542.592L743.384 542.08V541.216C743.384 539.392 742.136 538.208 739.864 538.208C737.784 538.208 736.44 539.168 736.056 540.8H732.92C733.304 537.76 735.832 535.52 739.864 535.52C743.96 535.52 746.456 537.6 746.456 541.376V549.184C746.456 550.176 746.552 551.552 746.616 551.936V552H743.416C743.384 551.456 743.384 550.784 743.384 550.144H742.84C741.912 551.776 740.056 552.48 737.944 552.48ZM735.672 547.424C735.672 549.056 736.984 549.984 738.776 549.984C741.688 549.984 743.384 547.808 743.384 545.664V544.32L739.704 544.768C737.176 545.056 735.672 545.728 735.672 547.424Z" fill="black"/>
<defs>
<clipPath id="clip0_1_9">
<rect width="312" height="79.4805" fill="white" transform="translate(1462 500)"/>
</clipPath>
</defs>
</svg>
